<svg data-v-423bf9ae="" xmlns="http://www.w3.org/2000/svg" viewBox="0 0 923 90" class="iconLeftSlogan"><!----><!----><!----><g data-v-423bf9ae="" id="a1517774-3884-4605-bb58-cce13f1f7732" fill="white" transform="matrix(5.602240876404433,0,0,5.602240876404433,101.79780821634625,-16.52661109094732)"><path d="M5.53 13.66L5.53 13.66Q3.57 13.66 2.48 12.54L2.48 12.54L2.48 12.54Q1.39 11.42 1.39 9.32L1.39 9.32L1.39 3.75L2.79 3.75L2.79 9.27L2.79 9.27Q2.79 12.42 5.54 12.42L5.54 12.42L5.54 12.42Q6.89 12.42 7.60 11.64L7.60 11.64L7.60 11.64Q8.32 10.86 8.32 9.27L8.32 9.27L8.32 3.75L9.67 3.75L9.67 9.32L9.67 9.32Q9.67 11.44 8.58 12.55L8.58 12.55L8.58 12.55Q7.49 13.66 5.53 13.66L5.53 13.66ZM13.36 12.45L17.85 12.45L17.85 13.55L11.63 13.55L11.63 12.68L16.02 7.24L11.72 7.24L11.72 6.13L17.74 6.13L17.74 7.01L13.36 12.45ZM28.92 6.06L28.92 6.06Q30.32 6.06 31.14 6.87L31.14 6.87L31.14 6.87Q31.96 7.69 31.96 9.28L31.96 9.28L31.96 13.55L30.62 13.55L30.62 9.44L30.62 9.44Q30.62 8.36 30.12 7.81L30.12 7.81L30.12 7.81Q29.62 7.27 28.70 7.27L28.70 7.27L28.70 7.27Q27.68 7.27 27.08 7.90L27.08 7.90L27.08 7.90Q26.47 8.54 26.47 9.73L26.47 9.73L26.47 13.55L25.13 13.55L25.13 9.44L25.13 9.44Q25.13 8.36 24.63 7.81L24.63 7.81L24.63 7.81Q24.14 7.27 23.21 7.27L23.21 7.27L23.21 7.27Q22.19 7.27 21.59 7.90L21.59 7.90L21.59 7.90Q20.99 8.54 20.99 9.73L20.99 9.73L20.99 13.55L19.64 13.55L19.64 6.13L20.93 6.13L20.93 7.24L20.93 7.24Q21.34 6.66 21.99 6.36L21.99 6.36L21.99 6.36Q22.65 6.06 23.49 6.06L23.49 6.06L23.49 6.06Q24.36 6.06 25.03 6.41L25.03 6.41L25.03 6.41Q25.70 6.76 26.07 7.43L26.07 7.43L26.07 7.43Q26.49 6.79 27.24 6.43L27.24 6.43L27.24 6.43Q27.99 6.06 28.92 6.06L28.92 6.06ZM34.76 13.64L34.76 13.64Q34.37 13.64 34.09 13.36L34.09 13.36L34.09 13.36Q33.81 13.09 33.81 12.67L33.81 12.67L33.81 12.67Q33.81 12.26 34.09 11.99L34.09 11.99L34.09 11.99Q34.37 11.72 34.76 11.72L34.76 11.72L34.76 11.72Q35.15 11.72 35.42 11.98L35.42 11.98L35.42 11.98Q35.69 12.25 35.69 12.67L35.69 12.67L35.69 12.67Q35.69 13.09 35.41 13.36L35.41 13.36L35.41 13.36Q35.14 13.64 34.76 13.64L34.76 13.64ZM41.58 13.55L41.58 3.75L45.71 3.75L45.71 3.75Q47.26 3.75 48.47 4.37L48.47 4.37L48.47 4.37Q49.67 4.98 50.34 6.10L50.34 6.10L50.34 6.10Q51.00 7.21 51.00 8.65L51.00 8.65L51.00 8.65Q51.00 10.09 50.34 11.21L50.34 11.21L50.34 11.21Q49.67 12.32 48.47 12.94L48.47 12.94L48.47 12.94Q47.26 13.55 45.71 13.55L45.71 13.55L41.58 13.55ZM42.98 12.33L45.63 12.33L45.63 12.33Q46.82 12.33 47.72 11.87L47.72 11.87L47.72 11.87Q48.62 11.41 49.11 10.58L49.11 10.58L49.11 10.58Q49.60 9.74 49.60 8.65L49.60 8.65L49.60 8.65Q49.60 7.56 49.11 6.73L49.11 6.73L49.11 6.73Q48.62 5.89 47.72 5.43L47.72 5.43L47.72 5.43Q46.82 4.97 45.63 4.97L45.63 4.97L42.98 4.97L42.98 12.33ZM54.24 7.38L54.24 7.38Q54.59 6.73 55.27 6.40L55.27 6.40L55.27 6.40Q55.96 6.06 56.94 6.06L56.94 6.06L56.94 7.36L56.94 7.36Q56.83 7.35 56.63 7.35L56.63 7.35L56.63 7.35Q55.54 7.35 54.91 8.00L54.91 8.00L54.91 8.00Q54.29 8.65 54.29 9.86L54.29 9.86L54.29 13.55L52.95 13.55L52.95 6.13L54.24 6.13L54.24 7.38ZM59.01 13.64L59.01 13.64Q58.62 13.64 58.34 13.36L58.34 13.36L58.34 13.36Q58.06 13.09 58.06 12.67L58.06 12.67L58.06 12.67Q58.06 12.26 58.34 11.99L58.34 11.99L58.34 11.99Q58.62 11.72 59.01 11.72L59.01 11.72L59.01 11.72Q59.40 11.72 59.67 11.98L59.67 11.98L59.67 11.98Q59.93 12.25 59.93 12.67L59.93 12.67L59.93 12.67Q59.93 13.09 59.66 13.36L59.66 13.36L59.66 13.36Q59.39 13.64 59.01 13.64L59.01 13.64ZM67.23 12.33L72.94 12.33L72.94 13.55L65.83 13.55L65.83 3.75L72.74 3.75L72.74 4.97L67.23 4.97L67.23 7.98L72.14 7.98L72.14 9.17L67.23 9.17L67.23 12.33ZM84.29 6.06L84.29 6.06Q85.69 6.06 86.51 6.87L86.51 6.87L86.51 6.87Q87.33 7.69 87.33 9.28L87.33 9.28L87.33 13.55L85.99 13.55L85.99 9.44L85.99 9.44Q85.99 8.36 85.49 7.81L85.49 7.81L85.49 7.81Q84.99 7.27 84.07 7.27L84.07 7.27L84.07 7.27Q83.05 7.27 82.45 7.90L82.45 7.90L82.45 7.90Q81.84 8.54 81.84 9.73L81.84 9.73L81.84 13.55L80.50 13.55L80.50 9.44L80.50 9.44Q80.50 8.36 80.00 7.81L80.00 7.81L80.00 7.81Q79.51 7.27 78.58 7.27L78.58 7.27L78.58 7.27Q77.56 7.27 76.96 7.90L76.96 7.90L76.96 7.90Q76.36 8.54 76.36 9.73L76.36 9.73L76.36 13.55L75.01 13.55L75.01 6.13L76.30 6.13L76.30 7.24L76.30 7.24Q76.71 6.66 77.36 6.36L77.36 6.36L77.36 6.36Q78.02 6.06 78.86 6.06L78.86 6.06L78.86 6.06Q79.73 6.06 80.40 6.41L80.40 6.41L80.40 6.41Q81.07 6.76 81.44 7.43L81.44 7.43L81.44 7.43Q81.86 6.79 82.61 6.43L82.61 6.43L82.61 6.43Q83.36 6.06 84.29 6.06L84.29 6.06ZM91.10 7.38L91.10 7.38Q91.45 6.73 92.13 6.40L92.13 6.40L92.13 6.40Q92.82 6.06 93.80 6.06L93.80 6.06L93.80 7.36L93.80 7.36Q93.69 7.35 93.49 7.35L93.49 7.35L93.49 7.35Q92.40 7.35 91.78 8.00L91.78 8.00L91.78 8.00Q91.15 8.65 91.15 9.86L91.15 9.86L91.15 13.55L89.81 13.55L89.81 6.13L91.10 6.13L91.10 7.38ZM102.26 9.88L102.26 9.88Q102.26 10.04 102.23 10.29L102.23 10.29L96.21 10.29L96.21 10.29Q96.33 11.27 97.07 11.87L97.07 11.87L97.07 11.87Q97.80 12.46 98.90 12.46L98.90 12.46L98.90 12.46Q100.23 12.46 101.04 11.56L101.04 11.56L101.78 12.43L101.78 12.43Q101.28 13.02 100.53 13.33L100.53 13.33L100.53 13.33Q99.78 13.64 98.85 13.64L98.85 13.64L98.85 13.64Q97.68 13.64 96.77 13.15L96.77 13.15L96.77 13.15Q95.86 12.67 95.36 11.80L95.36 11.80L95.36 11.80Q94.86 10.93 94.86 9.84L94.86 9.84L94.86 9.84Q94.86 8.76 95.35 7.90L95.35 7.90L95.35 7.90Q95.83 7.03 96.68 6.54L96.68 6.54L96.68 6.54Q97.52 6.06 98.59 6.06L98.59 6.06L98.59 6.06Q99.65 6.06 100.48 6.54L100.48 6.54L100.48 6.54Q101.32 7.03 101.79 7.90L101.79 7.90L101.79 7.90Q102.26 8.76 102.26 9.88L102.26 9.88ZM98.59 7.20L98.59 7.20Q97.62 7.20 96.97 7.78L96.97 7.78L96.97 7.78Q96.32 8.37 96.21 9.32L96.21 9.32L100.97 9.32L100.97 9.32Q100.86 8.39 100.20 7.79L100.20 7.79L100.20 7.79Q99.55 7.20 98.59 7.20L98.59 7.20ZM118.51 13.55L117.17 13.55L117.15 6.41L113.61 12.36L112.97 12.36L109.42 6.45L109.42 13.55L108.08 13.55L108.08 3.75L109.23 3.75L113.32 10.64L117.35 3.75L118.50 3.75L118.51 13.55ZM127.96 9.88L127.96 9.88Q127.96 10.04 127.93 10.29L127.93 10.29L121.91 10.29L121.91 10.29Q122.04 11.27 122.77 11.87L122.77 11.87L122.77 11.87Q123.51 12.46 124.60 12.46L124.60 12.46L124.60 12.46Q125.93 12.46 126.74 11.56L126.74 11.56L127.48 12.43L127.48 12.43Q126.98 13.02 126.23 13.33L126.23 13.33L126.23 13.33Q125.48 13.64 124.56 13.64L124.56 13.64L124.56 13.64Q123.38 13.64 122.47 13.15L122.47 13.15L122.47 13.15Q121.56 12.67 121.06 11.80L121.06 11.80L121.06 11.80Q120.57 10.93 120.57 9.84L120.57 9.84L120.57 9.84Q120.57 8.76 121.05 7.90L121.05 7.90L121.05 7.90Q121.53 7.03 122.38 6.54L122.38 6.54L122.38 6.54Q123.23 6.06 124.29 6.06L124.29 6.06L124.29 6.06Q125.36 6.06 126.19 6.54L126.19 6.54L126.19 6.54Q127.02 7.03 127.49 7.90L127.49 7.90L127.49 7.90Q127.96 8.76 127.96 9.88L127.96 9.88ZM124.29 7.20L124.29 7.20Q123.33 7.20 122.67 7.78L122.67 7.78L122.67 7.78Q122.02 8.37 121.91 9.32L121.91 9.32L126.67 9.32L126.67 9.32Q126.56 8.39 125.91 7.79L125.91 7.79L125.91 7.79Q125.26 7.20 124.29 7.20L124.29 7.20ZM133.57 12.15L133.99 13.12L133.99 13.12Q133.70 13.37 133.27 13.50L133.27 13.50L133.27 13.50Q132.83 13.64 132.37 13.64L132.37 13.64L132.37 13.64Q131.25 13.64 130.63 13.03L130.63 13.03L130.63 13.03Q130.02 12.43 130.02 11.31L130.02 11.31L130.02 7.24L128.76 7.24L128.76 6.13L130.02 6.13L130.02 4.51L131.36 4.51L131.36 6.13L133.49 6.13L133.49 7.24L131.36 7.24L131.36 11.26L131.36 11.26Q131.36 11.86 131.66 12.18L131.66 12.18L131.66 12.18Q131.96 12.50 132.52 12.50L132.52 12.50L132.52 12.50Q133.14 12.50 133.57 12.15L133.57 12.15ZM135.62 13.55L135.62 6.13L136.96 6.13L136.96 13.55L135.62 13.55ZM136.29 4.70L136.29 4.70Q135.90 4.70 135.64 4.45L135.64 4.45L135.64 4.45Q135.38 4.20 135.38 3.84L135.38 3.84L135.38 3.84Q135.38 3.47 135.64 3.21L135.64 3.21L135.64 3.21Q135.90 2.95 136.29 2.95L136.29 2.95L136.29 2.95Q136.68 2.95 136.94 3.20L136.94 3.20L136.94 3.20Q137.20 3.44 137.20 3.81L137.20 3.81L137.20 3.81Q137.20 4.19 136.94 4.45L136.94 4.45L136.94 4.45Q136.68 4.70 136.29 4.70L136.29 4.70ZM143.49 6.06L143.49 6.06Q144.90 6.06 145.73 6.88L145.73 6.88L145.73 6.88Q146.57 7.70 146.57 9.28L146.57 9.28L146.57 13.55L145.22 13.55L145.22 9.44L145.22 9.44Q145.22 8.36 144.70 7.81L144.70 7.81L144.70 7.81Q144.19 7.27 143.22 7.27L143.22 7.27L143.22 7.27Q142.13 7.27 141.50 7.90L141.50 7.90L141.50 7.90Q140.87 8.54 140.87 9.73L140.87 9.73L140.87 13.55L139.52 13.55L139.52 6.13L140.81 6.13L140.81 7.25L140.81 7.25Q141.22 6.68 141.91 6.37L141.91 6.37L141.91 6.37Q142.60 6.06 143.49 6.06L143.49 6.06Z"></path></g><!----><g data-v-423bf9ae="" id="3ef98d52-66d3-485d-a8e0-26b44794a6fc" transform="matrix(1.1188744330806863,0,0,1.1188744330806863,-10.998559901616481,-10.188626995450882)" stroke="none" fill="white"><style></style><path d="M18.16 28.733c-.337.743-.655 1.444-1.095 2.054a12.499 12.499 0 0 0-1.631 3.089h-4.286a1 1 0 1 0 0 2h3.76c-.258 1.49-.253 3.053.045 4.689.572 3.144 3.002 5.439 6.499 6.142 2.253.452 4.584.163 6.928-.856 1.818-.793 3.636-.775 5.554.048a12.63 12.63 0 0 0 3.82.973c.311.03.621.046.931.046 3.026 0 5.904-1.445 7.359-3.764.821-1.311 1.224-2.789 1.264-4.651a13.91 13.91 0 0 0-.19-2.626h5.556c-.258 1.49-.254 3.053.045 4.689.572 3.144 3.002 5.439 6.499 6.142 2.254.453 4.586.163 6.929-.856 1.819-.792 3.636-.776 5.553.048a12.63 12.63 0 0 0 3.82.973c.311.03.621.046.93.046 3.027 0 5.905-1.445 7.36-3.764.821-1.311 1.224-2.789 1.264-4.651a13.91 13.91 0 0 0-.19-2.626h4.327a1 1 0 1 0 0-2h-4.844a11.723 11.723 0 0 0-1.715-3.173c-.202-.267-.37-.553-.538-.837l-.167-.278a2.532 2.532 0 0 1-.383-1.44c.03-.862-.223-6.422-.493-8.393-.307-2.242-.872-4.171-1.728-5.895-.562-1.131-1.419-2.557-3.08-3.548a.86.86 0 0 0-.129-.064c-.935-.392-1.853-.321-2.646.199-3.019 1.979-3.308 10.527-3.335 12.237 0 .78-.628 1.414-1.404 1.429a1.435 1.435 0 0 1-1.404-1.444c-.027-1.694-.316-10.243-3.335-12.222-.793-.521-1.711-.588-2.646-.199-.012.005-.019.015-.03.02-.013.006-.027.005-.039.011-2.279 1.16-4.153 6.141-4.551 8.022-.602 2.854-.844 5.943-.762 9.721l.007.198c.005.129.013.323 0 .372l-.068.15c-.336.739-.653 1.438-1.09 2.044a12.499 12.499 0 0 0-1.631 3.089h-6.599a11.702 11.702 0 0 0-1.715-3.172c-.201-.266-.368-.551-.537-.835l-.168-.281a2.532 2.532 0 0 1-.383-1.44c.03-.859-.224-6.415-.493-8.393-.307-2.242-.872-4.171-1.728-5.895-.561-1.131-1.418-2.556-3.08-3.548a.86.86 0 0 0-.129-.064c-.935-.392-1.852-.321-2.646.199-3.019 1.979-3.308 10.527-3.335 12.237 0 .78-.628 1.414-1.404 1.429a1.435 1.435 0 0 1-1.404-1.444c-.027-1.694-.316-10.243-3.335-12.222-.794-.521-1.71-.588-2.646-.199-.012.005-.019.015-.03.02-.013.006-.027.005-.039.011-2.279 1.16-4.153 6.141-4.551 8.022-.602 2.854-.844 5.943-.762 9.721l.007.198c.005.129.013.323 0 .372l-.063.14zm64.913 9.725c-.032 1.486-.336 2.641-.958 3.633-1.19 1.897-3.814 3.041-6.398 2.79a10.702 10.702 0 0 1-3.227-.819c-2.454-1.056-4.79-1.07-7.143-.045-1.988.867-3.867 1.105-5.736.729-2.664-.535-4.505-2.231-4.926-4.54-.28-1.539-.279-2.976.004-4.33H64.94v1.875a1 1 0 0 0 1 1h5.751a1 1 0 0 0 1-1v-1.875h10.161c.166.814.242 1.671.221 2.582zM66.94 36.751V33h3.751v3.751H66.94zm-10.488-4.794c.555-.768.928-1.591 1.29-2.387l.068-.151c.21-.463.19-.934.177-1.278l-.005-.16c-.079-3.622.149-6.566.719-9.266.441-2.09 2.2-5.942 3.47-6.633.37-.141.578-.069.742.038 1.573 1.031 2.369 6.809 2.431 10.564 0 1.854 1.48 3.36 3.32 3.42.02.001.036.011.056.011.01 0 .018-.003.028-.003.01 0 .018.003.028.003.02 0 .036-.01.056-.011 1.84-.06 3.32-1.566 3.32-3.405.061-3.771.855-9.547 2.431-10.58.161-.105.359-.184.72-.051.926.571 1.602 1.377 2.248 2.68.757 1.526 1.26 3.253 1.537 5.277.258 1.88.502 7.291.477 8.053a4.523 4.523 0 0 0 .671 2.547l.157.262c.199.336.405.683.664 1.024a9.81 9.81 0 0 1 1.156 1.964h-9.521V32a1 1 0 0 0-1-1H65.94a1 1 0 0 0-1 1v1.876h-9.601c.295-.658.665-1.298 1.113-1.919zm-11.143 6.501c-.032 1.486-.336 2.641-.958 3.633-1.19 1.897-3.826 3.041-6.398 2.79a10.702 10.702 0 0 1-3.227-.819c-2.453-1.055-4.789-1.069-7.144-.045-1.987.867-3.862 1.105-5.735.729-2.664-.535-4.505-2.231-4.926-4.54-.28-1.539-.279-2.976.004-4.33h10.211v1.875a1 1 0 0 0 1 1h5.752a1 1 0 0 0 1-1v-1.875h10.2c.165.814.241 1.671.221 2.582zM29.136 33h3.752v3.751h-3.752V33zm-10.449-1.043c.557-.771.932-1.597 1.295-2.396l.064-.142c.21-.463.19-.934.177-1.278l-.005-.16c-.079-3.622.149-6.566.719-9.266.441-2.089 2.2-5.942 3.47-6.633.37-.141.577-.069.742.038 1.573 1.031 2.369 6.809 2.431 10.564 0 1.854 1.48 3.36 3.32 3.42.02.001.036.011.056.011.01 0 .018-.003.028-.003.01 0 .018.003.028.003.02 0 .036-.01.056-.011 1.84-.06 3.32-1.566 3.32-3.405.061-3.771.855-9.547 2.431-10.58.161-.105.36-.184.72-.051.926.571 1.602 1.378 2.248 2.68.757 1.526 1.26 3.253 1.536 5.277.258 1.885.503 7.293.478 8.053a4.523 4.523 0 0 0 .671 2.547l.158.264c.198.335.404.681.662 1.022a9.863 9.863 0 0 1 1.157 1.964h-9.56V32a1 1 0 0 0-1-1h-5.752a1 1 0 0 0-1 1v1.876h-9.562c.294-.658.663-1.298 1.112-1.919zM11.148 67.042h4.447c.386.947.898 1.842 1.542 2.69.201.266.368.551.537.835l.168.281c.275.452.4.923.383 1.44-.03.859.224 6.415.493 8.393.307 2.242.872 4.171 1.728 5.895.561 1.131 1.418 2.556 3.08 3.548a.86.86 0 0 0 .129.064c.398.167.794.249 1.178.249.517 0 1.013-.149 1.468-.448 3.019-1.979 3.308-10.527 3.335-12.237 0-.78.628-1.414 1.404-1.429a1.435 1.435 0 0 1 1.404 1.444c.027 1.694.316 10.243 3.335 12.222.456.299.951.448 1.468.448a3.06 3.06 0 0 0 1.178-.249c.012-.005.019-.015.031-.021.013-.006.026-.004.039-.011 2.279-1.16 4.153-6.141 4.551-8.022.602-2.854.844-5.943.762-9.721l-.007-.198c-.005-.129-.013-.323 0-.372l.064-.141c.337-.743.655-1.444 1.095-2.054.6-.832 1.072-1.705 1.443-2.607h6.96c.386.947.898 1.842 1.541 2.69.201.266.368.551.537.835l.168.281c.275.452.4.923.383 1.44-.03.859.224 6.415.493 8.393.307 2.239.871 4.168 1.728 5.895.561 1.131 1.418 2.556 3.08 3.548a.86.86 0 0 0 .129.064c.398.167.794.249 1.178.249.517 0 1.013-.149 1.468-.448 3.019-1.979 3.308-10.527 3.335-12.237 0-.779.628-1.413 1.404-1.429.776.016 1.403.65 1.403 1.444.027 1.694.316 10.243 3.335 12.222.455.299.951.448 1.468.448a3.06 3.06 0 0 0 1.178-.249c.012-.005.019-.015.031-.021.013-.006.026-.004.039-.011 2.282-1.161 4.154-6.142 4.551-8.022.602-2.852.844-5.94.763-9.724l-.007-.193a2.423 2.423 0 0 1-.001-.374l.064-.141c.337-.743.656-1.444 1.095-2.054.6-.832 1.072-1.705 1.443-2.607h5.044a1 1 0 1 0 0-2h-4.408c.351-1.632.363-3.359.032-5.171-.572-3.144-3.002-5.439-6.499-6.142-2.255-.455-4.585-.164-6.928.856-1.82.793-3.636.777-5.554-.05a12.859 12.859 0 0 0-3.82-.971c-3.358-.326-6.687 1.162-8.288 3.717-.823 1.312-1.226 2.79-1.266 4.653-.023 1.095.07 2.127.275 3.106h-5.718c.351-1.632.363-3.359.032-5.171-.572-3.144-3.002-5.439-6.499-6.142-2.254-.455-4.585-.164-6.928.856-1.82.793-3.638.777-5.554-.05a12.709 12.709 0 0 0-3.82-.971c-3.347-.326-6.687 1.162-8.29 3.718-.821 1.311-1.224 2.789-1.264 4.651a13.65 13.65 0 0 0 .274 3.107h-3.84a1.003 1.003 0 0 0-.002 2.006zm69.954 1.437c-.557.771-.932 1.597-1.295 2.396l-.064.142c-.211.465-.19.938-.176 1.284l.005.154c.078 3.624-.15 6.568-.72 9.267-.44 2.088-2.198 5.939-3.47 6.632-.371.14-.578.068-.743-.038-1.573-1.031-2.369-6.809-2.431-10.564a3.428 3.428 0 0 0-3.318-3.42c-.02-.001-.037-.011-.057-.011-.01 0-.019.003-.028.003-.01 0-.019-.003-.028-.003-.02 0-.037.01-.057.011-1.839.061-3.319 1.566-3.319 3.405-.061 3.771-.855 9.547-2.431 10.58-.161.104-.361.182-.72.051-.926-.571-1.602-1.378-2.248-2.68-.758-1.529-1.26-3.255-1.536-5.277-.258-1.885-.503-7.293-.478-8.053a4.523 4.523 0 0 0-.671-2.547l-.158-.264a10.497 10.497 0 0 0-.662-1.022c-.36-.475-.67-.969-.934-1.482h9.377v1.876a1 1 0 0 0 1 1h5.751a1 1 0 0 0 1-1v-1.876h9.279c-.251.488-.531.969-.868 1.436zm-14.162-.561v-3.751h3.751v3.751H66.94zm-12.461-5.939c.032-1.486.337-2.641.96-3.633 1.189-1.898 3.819-3.043 6.396-2.79 1.16.115 2.215.383 3.227.817 2.451 1.056 4.788 1.071 7.144.047 1.987-.866 3.864-1.104 5.735-.729 2.664.535 4.505 2.231 4.926 4.54.314 1.724.264 3.317-.129 4.812H72.691v-1.875a1 1 0 0 0-1-1H65.94a1 1 0 0 0-1 1v1.875H54.816a11.381 11.381 0 0 1-.337-3.064zm-11.142 6.5c-.557.771-.932 1.597-1.295 2.396l-.064.142c-.21.463-.19.934-.177 1.278l.005.16c.079 3.622-.149 6.566-.719 9.266-.441 2.089-2.2 5.941-3.47 6.633-.371.14-.578.068-.743-.038-1.573-1.031-2.369-6.809-2.431-10.564 0-1.854-1.48-3.36-3.32-3.42-.02-.001-.036-.011-.056-.011-.01 0-.018.003-.028.003-.01 0-.018-.003-.028-.003-.02 0-.036.01-.056.011-1.84.06-3.32 1.566-3.32 3.405-.061 3.771-.855 9.547-2.431 10.58-.162.104-.36.182-.72.051-.926-.571-1.602-1.378-2.248-2.68-.757-1.526-1.26-3.253-1.536-5.277-.258-1.885-.503-7.293-.478-8.053a4.523 4.523 0 0 0-.671-2.547l-.158-.264a10.497 10.497 0 0 0-.662-1.022 9.933 9.933 0 0 1-.934-1.482h9.337v1.876a1 1 0 0 0 1 1h5.752a1 1 0 0 0 1-1v-1.876h9.318c-.249.488-.53.969-.867 1.436zm-14.201-4.312h3.752v3.751h-3.752v-3.751zm-12.421-2.188c.032-1.486.336-2.641.958-3.633 1.19-1.897 3.823-3.043 6.398-2.79 1.158.115 2.214.383 3.227.817 2.452 1.056 4.787 1.071 7.144.047 1.987-.866 3.864-1.104 5.735-.729 2.664.535 4.505 2.231 4.926 4.54.314 1.724.264 3.317-.129 4.812H34.888v-1.875a1 1 0 0 0-1-1h-5.752a1 1 0 0 0-1 1v1.875H17.051a11.263 11.263 0 0 1-.336-3.064z"></path></g><!----><g data-v-423bf9ae="" id="0694cac4-388d-49ea-b345-0f14fd3580b9" fill="white" transform="matrix(3.211899960652835,0,0,3.211899960652835,107.33660470573665,54.604005315541)"><path d="M1.12 7.70C1.12 6.38 1.53 5.29 2.34 4.41C3.15 3.53 4.18 3.09 5.42 3.09C6.66 3.09 7.69 3.53 8.50 4.41C9.31 5.29 9.72 6.38 9.72 7.70C9.72 9.02 9.31 10.11 8.50 10.99C7.69 11.87 6.66 12.31 5.42 12.31C4.18 12.31 3.15 11.87 2.34 10.99C1.53 10.11 1.12 9.02 1.12 7.70ZM0.70 7.70C0.70 9.16 1.15 10.36 2.04 11.30C2.93 12.24 4.06 12.71 5.42 12.71C6.78 12.71 7.91 12.24 8.80 11.30C9.69 10.36 10.14 9.16 10.14 7.70C10.14 6.24 9.69 5.04 8.80 4.10C7.91 3.16 6.78 2.69 5.42 2.69C4.06 2.69 2.93 3.16 2.04 4.10C1.15 5.04 0.70 6.24 0.70 7.70ZM21.76 6.96L22.01 6.57C21.64 6.22 21.29 6.05 20.94 6.05C20.16 6.05 19.66 6.51 19.45 7.43L19.45 6.16L19.03 6.16L19.03 12.60L19.45 12.60L19.45 8.68C19.45 8.17 19.57 7.68 19.82 7.21C20.08 6.74 20.40 6.51 20.79 6.51C21.21 6.51 21.53 6.66 21.76 6.96ZM30.76 3.92L30.76 6.16L29.71 6.16L29.71 6.58L30.76 6.58L30.76 12.60L31.18 12.60L31.18 6.58L32.23 6.58L32.23 6.16L31.18 6.16L31.18 3.92ZM40.07 9.38C40.07 10.36 40.35 11.16 40.93 11.78C41.50 12.40 42.23 12.71 43.11 12.71C43.98 12.71 44.71 12.40 45.28 11.78C45.86 11.16 46.14 10.36 46.14 9.38C46.14 8.40 45.86 7.60 45.28 6.98C44.71 6.36 43.98 6.05 43.11 6.05C42.23 6.05 41.50 6.36 40.93 6.98C40.35 7.60 40.07 8.40 40.07 9.38ZM40.49 9.38C40.49 8.52 40.74 7.82 41.23 7.28C41.72 6.74 42.35 6.47 43.11 6.47C43.86 6.47 44.49 6.74 44.98 7.28C45.48 7.82 45.72 8.52 45.72 9.38C45.72 10.24 45.48 10.94 44.98 11.48C44.49 12.02 43.86 12.29 43.11 12.29C42.35 12.29 41.72 12.02 41.23 11.48C40.74 10.94 40.49 10.24 40.49 9.38ZM54.40 9.38C54.40 10.39 54.70 11.20 55.29 11.80C55.89 12.41 56.63 12.71 57.53 12.71C58.14 12.71 58.68 12.53 59.14 12.17C59.60 11.80 59.94 11.32 60.14 10.72L60.14 12.60L60.56 12.60L60.56 1.68L60.14 1.68L60.14 8.04C59.94 7.44 59.60 6.96 59.14 6.59C58.68 6.23 58.14 6.05 57.53 6.05C56.63 6.05 55.89 6.35 55.29 6.96C54.70 7.56 54.40 8.37 54.40 9.38ZM54.84 9.38C54.84 8.48 55.11 7.77 55.64 7.25C56.18 6.73 56.79 6.47 57.48 6.47C58.25 6.47 58.88 6.75 59.39 7.31C59.89 7.87 60.14 8.56 60.14 9.38C60.14 10.20 59.89 10.89 59.39 11.45C58.88 12.01 58.25 12.29 57.48 12.29C56.79 12.29 56.18 12.03 55.64 11.51C55.11 10.99 54.84 10.28 54.84 9.38ZM69.31 9.38C69.31 10.36 69.60 11.16 70.17 11.78C70.75 12.40 71.47 12.71 72.35 12.71C73.23 12.71 73.95 12.40 74.53 11.78C75.10 11.16 75.39 10.36 75.39 9.38C75.39 8.40 75.10 7.60 74.53 6.98C73.95 6.36 73.23 6.05 72.35 6.05C71.47 6.05 70.75 6.36 70.17 6.98C69.60 7.60 69.31 8.40 69.31 9.38ZM69.73 9.38C69.73 8.52 69.98 7.82 70.48 7.28C70.97 6.74 71.60 6.47 72.35 6.47C73.11 6.47 73.73 6.74 74.23 7.28C74.72 7.82 74.97 8.52 74.97 9.38C74.97 10.24 74.72 10.94 74.23 11.48C73.73 12.02 73.11 12.29 72.35 12.29C71.60 12.29 70.97 12.02 70.48 11.48C69.98 10.94 69.73 10.24 69.73 9.38ZM84.63 8.68C84.63 8.12 84.83 7.61 85.24 7.15C85.64 6.70 86.15 6.47 86.76 6.47C87.81 6.47 88.34 7.16 88.34 8.54L88.34 12.60L88.76 12.60L88.76 8.40C88.76 7.68 88.60 7.11 88.28 6.68C87.97 6.26 87.50 6.05 86.90 6.05C86.31 6.05 85.82 6.19 85.44 6.46C85.06 6.74 84.79 7.12 84.63 7.62L84.63 6.16L84.21 6.16L84.21 12.60L84.63 12.60ZM97.93 3.92L97.93 6.16L96.88 6.16L96.88 6.58L97.93 6.58L97.93 12.60L98.35 12.60L98.35 6.58L99.40 6.58L99.40 6.16L98.35 6.16L98.35 3.92ZM107.80 3.15C107.80 3.26 107.83 3.36 107.90 3.43C107.97 3.50 108.07 3.54 108.19 3.54C108.31 3.54 108.41 3.50 108.48 3.43C108.55 3.36 108.58 3.26 108.58 3.15C108.58 3.04 108.55 2.94 108.48 2.87C108.41 2.80 108.31 2.76 108.19 2.76C108.07 2.76 107.97 2.80 107.90 2.87C107.83 2.94 107.80 3.04 107.80 3.15ZM107.98 6.16L107.98 12.60L108.40 12.60L108.40 6.16ZM129.16 2.80L129.16 9.24C129.16 10.29 129.45 11.13 130.02 11.77C130.59 12.42 131.34 12.74 132.29 12.74C133.23 12.74 133.98 12.42 134.55 11.77C135.12 11.13 135.41 10.29 135.41 9.24L135.41 2.80L134.99 2.80L134.99 9.24C134.99 10.17 134.73 10.92 134.22 11.47C133.72 12.02 133.07 12.29 132.29 12.29C131.50 12.29 130.86 12.02 130.35 11.47C129.84 10.92 129.58 10.17 129.58 9.24L129.58 2.80ZM148.57 6.58L143.88 12.60L149.27 12.60L149.27 12.18L144.72 12.18L149.41 6.16L144.02 6.16L144.02 6.58ZM158.30 8.68C158.30 8.13 158.49 7.62 158.89 7.16C159.28 6.70 159.74 6.47 160.29 6.47C160.76 6.47 161.12 6.65 161.36 7.01C161.61 7.38 161.73 7.89 161.73 8.54L161.73 12.60L162.15 12.60L162.15 8.68C162.15 8.13 162.34 7.62 162.74 7.16C163.13 6.70 163.59 6.47 164.14 6.47C164.61 6.47 164.97 6.65 165.21 7.01C165.46 7.38 165.58 7.89 165.58 8.54L165.58 12.60L166.00 12.60L166.00 8.40C166.00 7.69 165.85 7.12 165.54 6.69C165.24 6.26 164.82 6.05 164.28 6.05C163.73 6.05 163.27 6.19 162.89 6.47C162.51 6.76 162.24 7.15 162.08 7.64C161.98 7.15 161.78 6.76 161.50 6.47C161.22 6.19 160.86 6.05 160.43 6.05C159.89 6.05 159.44 6.19 159.07 6.47C158.71 6.75 158.45 7.13 158.30 7.62L158.30 6.16L157.88 6.16L157.88 12.60L158.30 12.60ZM175.21 7.32C175.58 7.03 175.93 6.81 176.25 6.66C176.57 6.51 176.97 6.44 177.45 6.44C178.59 6.44 179.16 6.95 179.16 7.98L179.16 9.13C178.66 8.82 178.04 8.67 177.28 8.67C176.59 8.67 176.00 8.85 175.50 9.21C175.00 9.56 174.75 10.07 174.75 10.71C174.75 11.39 174.96 11.90 175.38 12.24C175.80 12.57 176.30 12.74 176.89 12.74C177.49 12.74 177.98 12.61 178.38 12.35C178.78 12.09 179.04 11.74 179.16 11.31L179.16 12.60L179.58 12.60L179.58 7.98C179.58 7.34 179.41 6.85 179.07 6.52C178.74 6.19 178.20 6.02 177.45 6.02C177.09 6.02 176.74 6.07 176.41 6.18C176.08 6.29 175.82 6.40 175.65 6.50C175.48 6.61 175.26 6.76 174.99 6.96ZM175.18 10.71C175.18 10.20 175.38 9.79 175.78 9.50C176.17 9.21 176.68 9.06 177.28 9.06C177.95 9.06 178.58 9.23 179.16 9.56L179.16 10.36C179.16 10.94 178.94 11.41 178.50 11.79C178.06 12.16 177.55 12.35 176.96 12.35C176.40 12.35 175.96 12.21 175.65 11.93C175.34 11.65 175.18 11.24 175.18 10.71ZM189.17 8.68C189.17 8.12 189.37 7.61 189.78 7.15C190.18 6.70 190.69 6.47 191.30 6.47C192.35 6.47 192.88 7.16 192.88 8.54L192.88 12.60L193.30 12.60L193.30 8.40C193.30 7.68 193.14 7.11 192.82 6.68C192.50 6.26 192.04 6.05 191.44 6.05C190.85 6.05 190.36 6.19 189.98 6.46C189.60 6.74 189.33 7.12 189.17 7.62L189.17 6.16L188.75 6.16L188.75 12.60L189.17 12.60ZM202.86 6.16L202.86 12.60L203.28 12.60L203.28 6.16Z"></path></g></svg>