<svg data-v-fde0c5aa="" xmlns="http://www.w3.org/2000/svg" viewBox="0 0 300 300" class="font"><!----><defs data-v-fde0c5aa=""><!----></defs><rect data-v-fde0c5aa="" fill="#00000000" x="0" y="0" width="300px" height="300px" class="logo-background-square"></rect><defs data-v-fde0c5aa=""><!----></defs><g data-v-fde0c5aa="" id="fd97ef2a-cb1b-4a10-9214-b6df3a0fa73a" fill="#0c4a6e" transform="matrix(1.5153601596381614,0,0,1.5153601596381614,37.89364939978036,137.41493377304388)"><path d="M5.53 13.66L5.53 13.66Q3.57 13.66 2.48 12.54L2.48 12.54L2.48 12.54Q1.39 11.42 1.39 9.32L1.39 9.32L1.39 3.75L2.79 3.75L2.79 9.27L2.79 9.27Q2.79 12.42 5.54 12.42L5.54 12.42L5.54 12.42Q6.89 12.42 7.60 11.64L7.60 11.64L7.60 11.64Q8.32 10.86 8.32 9.27L8.32 9.27L8.32 3.75L9.67 3.75L9.67 9.32L9.67 9.32Q9.67 11.44 8.58 12.55L8.58 12.55L8.58 12.55Q7.49 13.66 5.53 13.66L5.53 13.66ZM13.36 12.45L17.85 12.45L17.85 13.55L11.63 13.55L11.63 12.68L16.02 7.24L11.72 7.24L11.72 6.13L17.74 6.13L17.74 7.01L13.36 12.45ZM28.92 6.06L28.92 6.06Q30.32 6.06 31.14 6.87L31.14 6.87L31.14 6.87Q31.96 7.69 31.96 9.28L31.96 9.28L31.96 13.55L30.62 13.55L30.62 9.44L30.62 9.44Q30.62 8.36 30.12 7.81L30.12 7.81L30.12 7.81Q29.62 7.27 28.70 7.27L28.70 7.27L28.70 7.27Q27.68 7.27 27.08 7.90L27.08 7.90L27.08 7.90Q26.47 8.54 26.47 9.73L26.47 9.73L26.47 13.55L25.13 13.55L25.13 9.44L25.13 9.44Q25.13 8.36 24.63 7.81L24.63 7.81L24.63 7.81Q24.14 7.27 23.21 7.27L23.21 7.27L23.21 7.27Q22.19 7.27 21.59 7.90L21.59 7.90L21.59 7.90Q20.99 8.54 20.99 9.73L20.99 9.73L20.99 13.55L19.64 13.55L19.64 6.13L20.93 6.13L20.93 7.24L20.93 7.24Q21.34 6.66 21.99 6.36L21.99 6.36L21.99 6.36Q22.65 6.06 23.49 6.06L23.49 6.06L23.49 6.06Q24.36 6.06 25.03 6.41L25.03 6.41L25.03 6.41Q25.70 6.76 26.07 7.43L26.07 7.43L26.07 7.43Q26.49 6.79 27.24 6.43L27.24 6.43L27.24 6.43Q27.99 6.06 28.92 6.06L28.92 6.06ZM34.76 13.64L34.76 13.64Q34.37 13.64 34.09 13.36L34.09 13.36L34.09 13.36Q33.81 13.09 33.81 12.67L33.81 12.67L33.81 12.67Q33.81 12.26 34.09 11.99L34.09 11.99L34.09 11.99Q34.37 11.72 34.76 11.72L34.76 11.72L34.76 11.72Q35.15 11.72 35.42 11.98L35.42 11.98L35.42 11.98Q35.69 12.25 35.69 12.67L35.69 12.67L35.69 12.67Q35.69 13.09 35.41 13.36L35.41 13.36L35.41 13.36Q35.14 13.64 34.76 13.64L34.76 13.64ZM41.58 13.55L41.58 3.75L45.71 3.75L45.71 3.75Q47.26 3.75 48.47 4.37L48.47 4.37L48.47 4.37Q49.67 4.98 50.34 6.10L50.34 6.10L50.34 6.10Q51.00 7.21 51.00 8.65L51.00 8.65L51.00 8.65Q51.00 10.09 50.34 11.21L50.34 11.21L50.34 11.21Q49.67 12.32 48.47 12.94L48.47 12.94L48.47 12.94Q47.26 13.55 45.71 13.55L45.71 13.55L41.58 13.55ZM42.98 12.33L45.63 12.33L45.63 12.33Q46.82 12.33 47.72 11.87L47.72 11.87L47.72 11.87Q48.62 11.41 49.11 10.58L49.11 10.58L49.11 10.58Q49.60 9.74 49.60 8.65L49.60 8.65L49.60 8.65Q49.60 7.56 49.11 6.73L49.11 6.73L49.11 6.73Q48.62 5.89 47.72 5.43L47.72 5.43L47.72 5.43Q46.82 4.97 45.63 4.97L45.63 4.97L42.98 4.97L42.98 12.33ZM54.24 7.38L54.24 7.38Q54.59 6.73 55.27 6.40L55.27 6.40L55.27 6.40Q55.96 6.06 56.94 6.06L56.94 6.06L56.94 7.36L56.94 7.36Q56.83 7.35 56.63 7.35L56.63 7.35L56.63 7.35Q55.54 7.35 54.91 8.00L54.91 8.00L54.91 8.00Q54.29 8.65 54.29 9.86L54.29 9.86L54.29 13.55L52.95 13.55L52.95 6.13L54.24 6.13L54.24 7.38ZM59.01 13.64L59.01 13.64Q58.62 13.64 58.34 13.36L58.34 13.36L58.34 13.36Q58.06 13.09 58.06 12.67L58.06 12.67L58.06 12.67Q58.06 12.26 58.34 11.99L58.34 11.99L58.34 11.99Q58.62 11.72 59.01 11.72L59.01 11.72L59.01 11.72Q59.40 11.72 59.67 11.98L59.67 11.98L59.67 11.98Q59.93 12.25 59.93 12.67L59.93 12.67L59.93 12.67Q59.93 13.09 59.66 13.36L59.66 13.36L59.66 13.36Q59.39 13.64 59.01 13.64L59.01 13.64ZM67.23 12.33L72.94 12.33L72.94 13.55L65.83 13.55L65.83 3.75L72.74 3.75L72.74 4.97L67.23 4.97L67.23 7.98L72.14 7.98L72.14 9.17L67.23 9.17L67.23 12.33ZM84.29 6.06L84.29 6.06Q85.69 6.06 86.51 6.87L86.51 6.87L86.51 6.87Q87.33 7.69 87.33 9.28L87.33 9.28L87.33 13.55L85.99 13.55L85.99 9.44L85.99 9.44Q85.99 8.36 85.49 7.81L85.49 7.81L85.49 7.81Q84.99 7.27 84.07 7.27L84.07 7.27L84.07 7.27Q83.05 7.27 82.45 7.90L82.45 7.90L82.45 7.90Q81.84 8.54 81.84 9.73L81.84 9.73L81.84 13.55L80.50 13.55L80.50 9.44L80.50 9.44Q80.50 8.36 80.00 7.81L80.00 7.81L80.00 7.81Q79.51 7.27 78.58 7.27L78.58 7.27L78.58 7.27Q77.56 7.27 76.96 7.90L76.96 7.90L76.96 7.90Q76.36 8.54 76.36 9.73L76.36 9.73L76.36 13.55L75.01 13.55L75.01 6.13L76.30 6.13L76.30 7.24L76.30 7.24Q76.71 6.66 77.36 6.36L77.36 6.36L77.36 6.36Q78.02 6.06 78.86 6.06L78.86 6.06L78.86 6.06Q79.73 6.06 80.40 6.41L80.40 6.41L80.40 6.41Q81.07 6.76 81.44 7.43L81.44 7.43L81.44 7.43Q81.86 6.79 82.61 6.43L82.61 6.43L82.61 6.43Q83.36 6.06 84.29 6.06L84.29 6.06ZM91.10 7.38L91.10 7.38Q91.45 6.73 92.13 6.40L92.13 6.40L92.13 6.40Q92.82 6.06 93.80 6.06L93.80 6.06L93.80 7.36L93.80 7.36Q93.69 7.35 93.49 7.35L93.49 7.35L93.49 7.35Q92.40 7.35 91.78 8.00L91.78 8.00L91.78 8.00Q91.15 8.65 91.15 9.86L91.15 9.86L91.15 13.55L89.81 13.55L89.81 6.13L91.10 6.13L91.10 7.38ZM102.26 9.88L102.26 9.88Q102.26 10.04 102.23 10.29L102.23 10.29L96.21 10.29L96.21 10.29Q96.33 11.27 97.07 11.87L97.07 11.87L97.07 11.87Q97.80 12.46 98.90 12.46L98.90 12.46L98.90 12.46Q100.23 12.46 101.04 11.56L101.04 11.56L101.78 12.43L101.78 12.43Q101.28 13.02 100.53 13.33L100.53 13.33L100.53 13.33Q99.78 13.64 98.85 13.64L98.85 13.64L98.85 13.64Q97.68 13.64 96.77 13.15L96.77 13.15L96.77 13.15Q95.86 12.67 95.36 11.80L95.36 11.80L95.36 11.80Q94.86 10.93 94.86 9.84L94.86 9.84L94.86 9.84Q94.86 8.76 95.35 7.90L95.35 7.90L95.35 7.90Q95.83 7.03 96.68 6.54L96.68 6.54L96.68 6.54Q97.52 6.06 98.59 6.06L98.59 6.06L98.59 6.06Q99.65 6.06 100.48 6.54L100.48 6.54L100.48 6.54Q101.32 7.03 101.79 7.90L101.79 7.90L101.79 7.90Q102.26 8.76 102.26 9.88L102.26 9.88ZM98.59 7.20L98.59 7.20Q97.62 7.20 96.97 7.78L96.97 7.78L96.97 7.78Q96.32 8.37 96.21 9.32L96.21 9.32L100.97 9.32L100.97 9.32Q100.86 8.39 100.20 7.79L100.20 7.79L100.20 7.79Q99.55 7.20 98.59 7.20L98.59 7.20ZM118.51 13.55L117.17 13.55L117.15 6.41L113.61 12.36L112.97 12.36L109.42 6.45L109.42 13.55L108.08 13.55L108.08 3.75L109.23 3.75L113.32 10.64L117.35 3.75L118.50 3.75L118.51 13.55ZM127.96 9.88L127.96 9.88Q127.96 10.04 127.93 10.29L127.93 10.29L121.91 10.29L121.91 10.29Q122.04 11.27 122.77 11.87L122.77 11.87L122.77 11.87Q123.51 12.46 124.60 12.46L124.60 12.46L124.60 12.46Q125.93 12.46 126.74 11.56L126.74 11.56L127.48 12.43L127.48 12.43Q126.98 13.02 126.23 13.33L126.23 13.33L126.23 13.33Q125.48 13.64 124.56 13.64L124.56 13.64L124.56 13.64Q123.38 13.64 122.47 13.15L122.47 13.15L122.47 13.15Q121.56 12.67 121.06 11.80L121.06 11.80L121.06 11.80Q120.57 10.93 120.57 9.84L120.57 9.84L120.57 9.84Q120.57 8.76 121.05 7.90L121.05 7.90L121.05 7.90Q121.53 7.03 122.38 6.54L122.38 6.54L122.38 6.54Q123.23 6.06 124.29 6.06L124.29 6.06L124.29 6.06Q125.36 6.06 126.19 6.54L126.19 6.54L126.19 6.54Q127.02 7.03 127.49 7.90L127.49 7.90L127.49 7.90Q127.96 8.76 127.96 9.88L127.96 9.88ZM124.29 7.20L124.29 7.20Q123.33 7.20 122.67 7.78L122.67 7.78L122.67 7.78Q122.02 8.37 121.91 9.32L121.91 9.32L126.67 9.32L126.67 9.32Q126.56 8.39 125.91 7.79L125.91 7.79L125.91 7.79Q125.26 7.20 124.29 7.20L124.29 7.20ZM133.57 12.15L133.99 13.12L133.99 13.12Q133.70 13.37 133.27 13.50L133.27 13.50L133.27 13.50Q132.83 13.64 132.37 13.64L132.37 13.64L132.37 13.64Q131.25 13.64 130.63 13.03L130.63 13.03L130.63 13.03Q130.02 12.43 130.02 11.31L130.02 11.31L130.02 7.24L128.76 7.24L128.76 6.13L130.02 6.13L130.02 4.51L131.36 4.51L131.36 6.13L133.49 6.13L133.49 7.24L131.36 7.24L131.36 11.26L131.36 11.26Q131.36 11.86 131.66 12.18L131.66 12.18L131.66 12.18Q131.96 12.50 132.52 12.50L132.52 12.50L132.52 12.50Q133.14 12.50 133.57 12.15L133.57 12.15ZM135.62 13.55L135.62 6.13L136.96 6.13L136.96 13.55L135.62 13.55ZM136.29 4.70L136.29 4.70Q135.90 4.70 135.64 4.45L135.64 4.45L135.64 4.45Q135.38 4.20 135.38 3.84L135.38 3.84L135.38 3.84Q135.38 3.47 135.64 3.21L135.64 3.21L135.64 3.21Q135.90 2.95 136.29 2.95L136.29 2.95L136.29 2.95Q136.68 2.95 136.94 3.20L136.94 3.20L136.94 3.20Q137.20 3.44 137.20 3.81L137.20 3.81L137.20 3.81Q137.20 4.19 136.94 4.45L136.94 4.45L136.94 4.45Q136.68 4.70 136.29 4.70L136.29 4.70ZM143.49 6.06L143.49 6.06Q144.90 6.06 145.73 6.88L145.73 6.88L145.73 6.88Q146.57 7.70 146.57 9.28L146.57 9.28L146.57 13.55L145.22 13.55L145.22 9.44L145.22 9.44Q145.22 8.36 144.70 7.81L144.70 7.81L144.70 7.81Q144.19 7.27 143.22 7.27L143.22 7.27L143.22 7.27Q142.13 7.27 141.50 7.90L141.50 7.90L141.50 7.90Q140.87 8.54 140.87 9.73L140.87 9.73L140.87 13.55L139.52 13.55L139.52 6.13L140.81 6.13L140.81 7.25L140.81 7.25Q141.22 6.68 141.91 6.37L141.91 6.37L141.91 6.37Q142.60 6.06 143.49 6.06L143.49 6.06Z"></path></g><!----><!----></svg>