<svg data-v-423bf9ae="" xmlns="http://www.w3.org/2000/svg" viewBox="0 0 1153 90" class="iconLeftSlogan"><!----><!----><!----><g data-v-423bf9ae="" id="444c98af-ce12-4094-a23e-5924dd249981" fill="white" transform="matrix(5.612721889848748,0,0,5.612721889848748,101.33424856736849,-16.557529604270663)"><path d="M1.47 13.55L1.47 3.75L5.60 3.75L5.60 3.75Q7.15 3.75 8.36 4.37L8.36 4.37L8.36 4.37Q9.56 4.98 10.23 6.10L10.23 6.10L10.23 6.10Q10.89 7.21 10.89 8.65L10.89 8.65L10.89 8.65Q10.89 10.09 10.23 11.21L10.23 11.21L10.23 11.21Q9.56 12.32 8.36 12.94L8.36 12.94L8.36 12.94Q7.15 13.55 5.60 13.55L5.60 13.55L1.47 13.55ZM2.87 12.33L5.52 12.33L5.52 12.33Q6.71 12.33 7.61 11.87L7.61 11.87L7.61 11.87Q8.51 11.41 9.00 10.58L9.00 10.58L9.00 10.58Q9.49 9.74 9.49 8.65L9.49 8.65L9.49 8.65Q9.49 7.56 9.00 6.73L9.00 6.73L9.00 6.73Q8.51 5.89 7.61 5.43L7.61 5.43L7.61 5.43Q6.71 4.97 5.52 4.97L5.52 4.97L2.87 4.97L2.87 12.33ZM14.13 7.38L14.13 7.38Q14.48 6.73 15.16 6.40L15.16 6.40L15.16 6.40Q15.85 6.06 16.83 6.06L16.83 6.06L16.83 7.36L16.83 7.36Q16.72 7.35 16.52 7.35L16.52 7.35L16.52 7.35Q15.43 7.35 14.80 8.00L14.80 8.00L14.80 8.00Q14.18 8.65 14.18 9.86L14.18 9.86L14.18 13.55L12.84 13.55L12.84 6.13L14.13 6.13L14.13 7.38ZM18.90 13.64L18.90 13.64Q18.51 13.64 18.23 13.36L18.23 13.36L18.23 13.36Q17.95 13.09 17.95 12.67L17.95 12.67L17.95 12.67Q17.95 12.26 18.23 11.99L18.23 11.99L18.23 11.99Q18.51 11.72 18.90 11.72L18.90 11.72L18.90 11.72Q19.29 11.72 19.56 11.98L19.56 11.98L19.56 11.98Q19.82 12.25 19.82 12.67L19.82 12.67L19.82 12.67Q19.82 13.09 19.55 13.36L19.55 13.36L19.55 13.36Q19.28 13.64 18.90 13.64L18.90 13.64ZM36.15 13.55L34.80 13.55L34.79 6.41L31.25 12.36L30.60 12.36L27.06 6.45L27.06 13.55L25.72 13.55L25.72 3.75L26.87 3.75L30.95 10.64L34.99 3.75L36.13 3.75L36.15 13.55ZM45.60 9.88L45.60 9.88Q45.60 10.04 45.57 10.29L45.57 10.29L39.55 10.29L39.55 10.29Q39.68 11.27 40.41 11.87L40.41 11.87L40.41 11.87Q41.15 12.46 42.24 12.46L42.24 12.46L42.24 12.46Q43.57 12.46 44.38 11.56L44.38 11.56L45.12 12.43L45.12 12.43Q44.62 13.02 43.87 13.33L43.87 13.33L43.87 13.33Q43.12 13.64 42.20 13.64L42.20 13.64L42.20 13.64Q41.02 13.64 40.11 13.15L40.11 13.15L40.11 13.15Q39.20 12.67 38.70 11.80L38.70 11.80L38.70 11.80Q38.21 10.93 38.21 9.84L38.21 9.84L38.21 9.84Q38.21 8.76 38.69 7.90L38.69 7.90L38.69 7.90Q39.17 7.03 40.02 6.54L40.02 6.54L40.02 6.54Q40.87 6.06 41.93 6.06L41.93 6.06L41.93 6.06Q42.99 6.06 43.83 6.54L43.83 6.54L43.83 6.54Q44.66 7.03 45.13 7.90L45.13 7.90L45.13 7.90Q45.60 8.76 45.60 9.88L45.60 9.88ZM41.93 7.20L41.93 7.20Q40.96 7.20 40.31 7.78L40.31 7.78L40.31 7.78Q39.66 8.37 39.55 9.32L39.55 9.32L44.31 9.32L44.31 9.32Q44.20 8.39 43.55 7.79L43.55 7.79L43.55 7.79Q42.90 7.20 41.93 7.20L41.93 7.20ZM53.12 3.16L54.46 3.16L54.46 13.55L53.17 13.55L53.17 12.38L53.17 12.38Q52.72 12.99 52.04 13.31L52.04 13.31L52.04 13.31Q51.35 13.64 50.53 13.64L50.53 13.64L50.53 13.64Q49.45 13.64 48.59 13.16L48.59 13.16L48.59 13.16Q47.74 12.68 47.26 11.82L47.26 11.82L47.26 11.82Q46.77 10.96 46.77 9.84L46.77 9.84L46.77 9.84Q46.77 8.72 47.26 7.87L47.26 7.87L47.26 7.87Q47.74 7.01 48.59 6.54L48.59 6.54L48.59 6.54Q49.45 6.06 50.53 6.06L50.53 6.06L50.53 6.06Q51.32 6.06 52.00 6.36L52.00 6.36L52.00 6.36Q52.67 6.66 53.12 7.25L53.12 7.25L53.12 3.16ZM50.64 12.46L50.64 12.46Q51.34 12.46 51.91 12.13L51.91 12.13L51.91 12.13Q52.49 11.80 52.81 11.21L52.81 11.21L52.81 11.21Q53.13 10.61 53.13 9.84L53.13 9.84L53.13 9.84Q53.13 9.07 52.81 8.48L52.81 8.48L52.81 8.48Q52.49 7.88 51.91 7.56L51.91 7.56L51.91 7.56Q51.34 7.24 50.64 7.24L50.64 7.24L50.64 7.24Q49.92 7.24 49.36 7.56L49.36 7.56L49.36 7.56Q48.79 7.88 48.46 8.48L48.46 8.48L48.46 8.48Q48.13 9.07 48.13 9.84L48.13 9.84L48.13 9.84Q48.13 10.61 48.46 11.21L48.46 11.21L48.46 11.21Q48.79 11.80 49.36 12.13L49.36 12.13L49.36 12.13Q49.92 12.46 50.64 12.46L50.64 12.46ZM57.33 13.64L57.33 13.64Q56.94 13.64 56.66 13.36L56.66 13.36L56.66 13.36Q56.38 13.09 56.38 12.67L56.38 12.67L56.38 12.67Q56.38 12.26 56.66 11.99L56.66 11.99L56.66 11.99Q56.94 11.72 57.33 11.72L57.33 11.72L57.33 11.72Q57.72 11.72 57.99 11.98L57.99 11.98L57.99 11.98Q58.25 12.25 58.25 12.67L58.25 12.67L58.25 12.67Q58.25 13.09 57.98 13.36L57.98 13.36L57.98 13.36Q57.71 13.64 57.33 13.64L57.33 13.64ZM64.15 13.55L64.15 3.75L68.28 3.75L68.28 3.75Q69.83 3.75 71.04 4.37L71.04 4.37L71.04 4.37Q72.24 4.98 72.91 6.10L72.91 6.10L72.91 6.10Q73.57 7.21 73.57 8.65L73.57 8.65L73.57 8.65Q73.57 10.09 72.91 11.21L72.91 11.21L72.91 11.21Q72.24 12.32 71.04 12.94L71.04 12.94L71.04 12.94Q69.83 13.55 68.28 13.55L68.28 13.55L64.15 13.55ZM65.55 12.33L68.19 12.33L68.19 12.33Q69.38 12.33 70.29 11.87L70.29 11.87L70.29 11.87Q71.19 11.41 71.68 10.58L71.68 10.58L71.68 10.58Q72.17 9.74 72.17 8.65L72.17 8.65L72.17 8.65Q72.17 7.56 71.68 6.73L71.68 6.73L71.68 6.73Q71.19 5.89 70.29 5.43L70.29 5.43L70.29 5.43Q69.38 4.97 68.19 4.97L68.19 4.97L65.55 4.97L65.55 12.33ZM82.22 9.88L82.22 9.88Q82.22 10.04 82.19 10.29L82.19 10.29L76.17 10.29L76.17 10.29Q76.30 11.27 77.04 11.87L77.04 11.87L77.04 11.87Q77.77 12.46 78.86 12.46L78.86 12.46L78.86 12.46Q80.19 12.46 81.00 11.56L81.00 11.56L81.75 12.43L81.75 12.43Q81.24 13.02 80.49 13.33L80.49 13.33L80.49 13.33Q79.74 13.64 78.82 13.64L78.82 13.64L78.82 13.64Q77.64 13.64 76.73 13.15L76.73 13.15L76.73 13.15Q75.82 12.67 75.33 11.80L75.33 11.80L75.33 11.80Q74.83 10.93 74.83 9.84L74.83 9.84L74.83 9.84Q74.83 8.76 75.31 7.90L75.31 7.90L75.31 7.90Q75.80 7.03 76.64 6.54L76.64 6.54L76.64 6.54Q77.49 6.06 78.55 6.06L78.55 6.06L78.55 6.06Q79.62 6.06 80.45 6.54L80.45 6.54L80.45 6.54Q81.28 7.03 81.75 7.90L81.75 7.90L81.75 7.90Q82.22 8.76 82.22 9.88L82.22 9.88ZM78.55 7.20L78.55 7.20Q77.59 7.20 76.94 7.78L76.94 7.78L76.94 7.78Q76.29 8.37 76.17 9.32L76.17 9.32L80.93 9.32L80.93 9.32Q80.82 8.39 80.17 7.79L80.17 7.79L80.17 7.79Q79.52 7.20 78.55 7.20L78.55 7.20ZM88.05 6.06L88.05 6.06Q89.46 6.06 90.29 6.88L90.29 6.88L90.29 6.88Q91.13 7.70 91.13 9.28L91.13 9.28L91.13 13.55L89.78 13.55L89.78 9.44L89.78 9.44Q89.78 8.36 89.26 7.81L89.26 7.81L89.26 7.81Q88.75 7.27 87.78 7.27L87.78 7.27L87.78 7.27Q86.69 7.27 86.06 7.90L86.06 7.90L86.06 7.90Q85.43 8.54 85.43 9.73L85.43 9.73L85.43 13.55L84.08 13.55L84.08 6.13L85.37 6.13L85.37 7.25L85.37 7.25Q85.78 6.68 86.47 6.37L86.47 6.37L86.47 6.37Q87.16 6.06 88.05 6.06L88.05 6.06ZM97.37 12.15L97.79 13.12L97.79 13.12Q97.50 13.37 97.06 13.50L97.06 13.50L97.06 13.50Q96.63 13.64 96.17 13.64L96.17 13.64L96.17 13.64Q95.05 13.64 94.43 13.03L94.43 13.03L94.43 13.03Q93.81 12.43 93.81 11.31L93.81 11.31L93.81 7.24L92.55 7.24L92.55 6.13L93.81 6.13L93.81 4.51L95.16 4.51L95.16 6.13L97.29 6.13L97.29 7.24L95.16 7.24L95.16 11.26L95.16 11.26Q95.16 11.86 95.46 12.18L95.46 12.18L95.46 12.18Q95.76 12.50 96.32 12.50L96.32 12.50L96.32 12.50Q96.94 12.50 97.37 12.15L97.37 12.15ZM99.74 13.64L99.74 13.64Q99.34 13.64 99.06 13.36L99.06 13.36L99.06 13.36Q98.78 13.09 98.78 12.67L98.78 12.67L98.78 12.67Q98.78 12.26 99.06 11.99L99.06 11.99L99.06 11.99Q99.34 11.72 99.74 11.72L99.74 11.72L99.74 11.72Q100.13 11.72 100.39 11.98L100.39 11.98L100.39 11.98Q100.66 12.25 100.66 12.67L100.66 12.67L100.66 12.67Q100.66 13.09 100.39 13.36L100.39 13.36L100.39 13.36Q100.11 13.64 99.74 13.64L99.74 13.64ZM107.95 12.33L113.67 12.33L113.67 13.55L106.55 13.55L106.55 3.75L113.47 3.75L113.47 4.97L107.95 4.97L107.95 7.98L112.87 7.98L112.87 9.17L107.95 9.17L107.95 12.33ZM125.02 6.06L125.02 6.06Q126.42 6.06 127.24 6.87L127.24 6.87L127.24 6.87Q128.06 7.69 128.06 9.28L128.06 9.28L128.06 13.55L126.71 13.55L126.71 9.44L126.71 9.44Q126.71 8.36 126.22 7.81L126.22 7.81L126.22 7.81Q125.72 7.27 124.80 7.27L124.80 7.27L124.80 7.27Q123.77 7.27 123.17 7.90L123.17 7.90L123.17 7.90Q122.57 8.54 122.57 9.73L122.57 9.73L122.57 13.55L121.23 13.55L121.23 9.44L121.23 9.44Q121.23 8.36 120.73 7.81L120.73 7.81L120.73 7.81Q120.23 7.27 119.31 7.27L119.31 7.27L119.31 7.27Q118.29 7.27 117.68 7.90L117.68 7.90L117.68 7.90Q117.08 8.54 117.08 9.73L117.08 9.73L117.08 13.55L115.74 13.55L115.74 6.13L117.03 6.13L117.03 7.24L117.03 7.24Q117.43 6.66 118.09 6.36L118.09 6.36L118.09 6.36Q118.75 6.06 119.59 6.06L119.59 6.06L119.59 6.06Q120.46 6.06 121.13 6.41L121.13 6.41L121.13 6.41Q121.80 6.76 122.16 7.43L122.16 7.43L122.16 7.43Q122.58 6.79 123.33 6.43L123.33 6.43L123.33 6.43Q124.08 6.06 125.02 6.06L125.02 6.06ZM131.82 7.38L131.82 7.38Q132.17 6.73 132.86 6.40L132.86 6.40L132.86 6.40Q133.55 6.06 134.53 6.06L134.53 6.06L134.53 7.36L134.53 7.36Q134.41 7.35 134.22 7.35L134.22 7.35L134.22 7.35Q133.13 7.35 132.50 8.00L132.50 8.00L132.50 8.00Q131.88 8.65 131.88 9.86L131.88 9.86L131.88 13.55L130.54 13.55L130.54 6.13L131.82 6.13L131.82 7.38ZM142.98 9.88L142.98 9.88Q142.98 10.04 142.95 10.29L142.95 10.29L136.93 10.29L136.93 10.29Q137.06 11.27 137.80 11.87L137.80 11.87L137.80 11.87Q138.53 12.46 139.62 12.46L139.62 12.46L139.62 12.46Q140.95 12.46 141.76 11.56L141.76 11.56L142.51 12.43L142.51 12.43Q142.00 13.02 141.25 13.33L141.25 13.33L141.25 13.33Q140.50 13.64 139.58 13.64L139.58 13.64L139.58 13.64Q138.40 13.64 137.49 13.15L137.49 13.15L137.49 13.15Q136.58 12.67 136.09 11.80L136.09 11.80L136.09 11.80Q135.59 10.93 135.59 9.84L135.59 9.84L135.59 9.84Q135.59 8.76 136.07 7.90L136.07 7.90L136.07 7.90Q136.56 7.03 137.40 6.54L137.40 6.54L137.40 6.54Q138.25 6.06 139.31 6.06L139.31 6.06L139.31 6.06Q140.38 6.06 141.21 6.54L141.21 6.54L141.21 6.54Q142.04 7.03 142.51 7.90L142.51 7.90L142.51 7.90Q142.98 8.76 142.98 9.88L142.98 9.88ZM139.31 7.20L139.31 7.20Q138.35 7.20 137.70 7.78L137.70 7.78L137.70 7.78Q137.05 8.37 136.93 9.32L136.93 9.32L141.69 9.32L141.69 9.32Q141.58 8.39 140.93 7.79L140.93 7.79L140.93 7.79Q140.28 7.20 139.31 7.20L139.31 7.20ZM159.24 13.55L157.89 13.55L157.88 6.41L154.34 12.36L153.69 12.36L150.15 6.45L150.15 13.55L148.81 13.55L148.81 3.75L149.95 3.75L154.04 10.64L158.07 3.75L159.22 3.75L159.24 13.55ZM168.69 9.88L168.69 9.88Q168.69 10.04 168.66 10.29L168.66 10.29L162.64 10.29L162.64 10.29Q162.76 11.27 163.50 11.87L163.50 11.87L163.50 11.87Q164.23 12.46 165.33 12.46L165.33 12.46L165.33 12.46Q166.66 12.46 167.47 11.56L167.47 11.56L168.21 12.43L168.21 12.43Q167.71 13.02 166.96 13.33L166.96 13.33L166.96 13.33Q166.21 13.64 165.28 13.64L165.28 13.64L165.28 13.64Q164.11 13.64 163.20 13.15L163.20 13.15L163.20 13.15Q162.29 12.67 161.79 11.80L161.79 11.80L161.79 11.80Q161.29 10.93 161.29 9.84L161.29 9.84L161.29 9.84Q161.29 8.76 161.78 7.90L161.78 7.90L161.78 7.90Q162.26 7.03 163.11 6.54L163.11 6.54L163.11 6.54Q163.95 6.06 165.02 6.06L165.02 6.06L165.02 6.06Q166.08 6.06 166.92 6.54L166.92 6.54L166.92 6.54Q167.75 7.03 168.22 7.90L168.22 7.90L168.22 7.90Q168.69 8.76 168.69 9.88L168.69 9.88ZM165.02 7.20L165.02 7.20Q164.05 7.20 163.40 7.78L163.40 7.78L163.40 7.78Q162.75 8.37 162.64 9.32L162.64 9.32L167.40 9.32L167.40 9.32Q167.29 8.39 166.64 7.79L166.64 7.79L166.64 7.79Q165.98 7.20 165.02 7.20L165.02 7.20ZM174.30 12.15L174.72 13.12L174.72 13.12Q174.43 13.37 173.99 13.50L173.99 13.50L173.99 13.50Q173.56 13.64 173.10 13.64L173.10 13.64L173.10 13.64Q171.98 13.64 171.36 13.03L171.36 13.03L171.36 13.03Q170.74 12.43 170.74 11.31L170.74 11.31L170.74 7.24L169.48 7.24L169.48 6.13L170.74 6.13L170.74 4.51L172.09 4.51L172.09 6.13L174.22 6.13L174.22 7.24L172.09 7.24L172.09 11.26L172.09 11.26Q172.09 11.86 172.39 12.18L172.39 12.18L172.39 12.18Q172.69 12.50 173.25 12.50L173.25 12.50L173.25 12.50Q173.87 12.50 174.30 12.15L174.30 12.15ZM176.34 13.55L176.34 6.13L177.69 6.13L177.69 13.55L176.34 13.55ZM177.02 4.70L177.02 4.70Q176.62 4.70 176.37 4.45L176.37 4.45L176.37 4.45Q176.11 4.20 176.11 3.84L176.11 3.84L176.11 3.84Q176.11 3.47 176.37 3.21L176.37 3.21L176.37 3.21Q176.62 2.95 177.02 2.95L177.02 2.95L177.02 2.95Q177.41 2.95 177.67 3.20L177.67 3.20L177.67 3.20Q177.93 3.44 177.93 3.81L177.93 3.81L177.93 3.81Q177.93 4.19 177.67 4.45L177.67 4.45L177.67 4.45Q177.41 4.70 177.02 4.70L177.02 4.70ZM184.21 6.06L184.21 6.06Q185.63 6.06 186.46 6.88L186.46 6.88L186.46 6.88Q187.29 7.70 187.29 9.28L187.29 9.28L187.29 13.55L185.95 13.55L185.95 9.44L185.95 9.44Q185.95 8.36 185.43 7.81L185.43 7.81L185.43 7.81Q184.91 7.27 183.95 7.27L183.95 7.27L183.95 7.27Q182.85 7.27 182.22 7.90L182.22 7.90L182.22 7.90Q181.59 8.54 181.59 9.73L181.59 9.73L181.59 13.55L180.25 13.55L180.25 6.13L181.54 6.13L181.54 7.25L181.54 7.25Q181.94 6.68 182.64 6.37L182.64 6.37L182.64 6.37Q183.33 6.06 184.21 6.06L184.21 6.06Z"></path></g><!----><g data-v-423bf9ae="" id="a86ea1da-f53c-4952-9e0a-8ca73c5a3254" transform="matrix(1.1188744330806863,0,0,1.1188744330806863,-10.998559901616481,-10.188626995450882)" stroke="none" fill="white"><style></style><path d="M18.16 28.733c-.337.743-.655 1.444-1.095 2.054a12.499 12.499 0 0 0-1.631 3.089h-4.286a1 1 0 1 0 0 2h3.76c-.258 1.49-.253 3.053.045 4.689.572 3.144 3.002 5.439 6.499 6.142 2.253.452 4.584.163 6.928-.856 1.818-.793 3.636-.775 5.554.048a12.63 12.63 0 0 0 3.82.973c.311.03.621.046.931.046 3.026 0 5.904-1.445 7.359-3.764.821-1.311 1.224-2.789 1.264-4.651a13.91 13.91 0 0 0-.19-2.626h5.556c-.258 1.49-.254 3.053.045 4.689.572 3.144 3.002 5.439 6.499 6.142 2.254.453 4.586.163 6.929-.856 1.819-.792 3.636-.776 5.553.048a12.63 12.63 0 0 0 3.82.973c.311.03.621.046.93.046 3.027 0 5.905-1.445 7.36-3.764.821-1.311 1.224-2.789 1.264-4.651a13.91 13.91 0 0 0-.19-2.626h4.327a1 1 0 1 0 0-2h-4.844a11.723 11.723 0 0 0-1.715-3.173c-.202-.267-.37-.553-.538-.837l-.167-.278a2.532 2.532 0 0 1-.383-1.44c.03-.862-.223-6.422-.493-8.393-.307-2.242-.872-4.171-1.728-5.895-.562-1.131-1.419-2.557-3.08-3.548a.86.86 0 0 0-.129-.064c-.935-.392-1.853-.321-2.646.199-3.019 1.979-3.308 10.527-3.335 12.237 0 .78-.628 1.414-1.404 1.429a1.435 1.435 0 0 1-1.404-1.444c-.027-1.694-.316-10.243-3.335-12.222-.793-.521-1.711-.588-2.646-.199-.012.005-.019.015-.03.02-.013.006-.027.005-.039.011-2.279 1.16-4.153 6.141-4.551 8.022-.602 2.854-.844 5.943-.762 9.721l.007.198c.005.129.013.323 0 .372l-.068.15c-.336.739-.653 1.438-1.09 2.044a12.499 12.499 0 0 0-1.631 3.089h-6.599a11.702 11.702 0 0 0-1.715-3.172c-.201-.266-.368-.551-.537-.835l-.168-.281a2.532 2.532 0 0 1-.383-1.44c.03-.859-.224-6.415-.493-8.393-.307-2.242-.872-4.171-1.728-5.895-.561-1.131-1.418-2.556-3.08-3.548a.86.86 0 0 0-.129-.064c-.935-.392-1.852-.321-2.646.199-3.019 1.979-3.308 10.527-3.335 12.237 0 .78-.628 1.414-1.404 1.429a1.435 1.435 0 0 1-1.404-1.444c-.027-1.694-.316-10.243-3.335-12.222-.794-.521-1.71-.588-2.646-.199-.012.005-.019.015-.03.02-.013.006-.027.005-.039.011-2.279 1.16-4.153 6.141-4.551 8.022-.602 2.854-.844 5.943-.762 9.721l.007.198c.005.129.013.323 0 .372l-.063.14zm64.913 9.725c-.032 1.486-.336 2.641-.958 3.633-1.19 1.897-3.814 3.041-6.398 2.79a10.702 10.702 0 0 1-3.227-.819c-2.454-1.056-4.79-1.07-7.143-.045-1.988.867-3.867 1.105-5.736.729-2.664-.535-4.505-2.231-4.926-4.54-.28-1.539-.279-2.976.004-4.33H64.94v1.875a1 1 0 0 0 1 1h5.751a1 1 0 0 0 1-1v-1.875h10.161c.166.814.242 1.671.221 2.582zM66.94 36.751V33h3.751v3.751H66.94zm-10.488-4.794c.555-.768.928-1.591 1.29-2.387l.068-.151c.21-.463.19-.934.177-1.278l-.005-.16c-.079-3.622.149-6.566.719-9.266.441-2.09 2.2-5.942 3.47-6.633.37-.141.578-.069.742.038 1.573 1.031 2.369 6.809 2.431 10.564 0 1.854 1.48 3.36 3.32 3.42.02.001.036.011.056.011.01 0 .018-.003.028-.003.01 0 .018.003.028.003.02 0 .036-.01.056-.011 1.84-.06 3.32-1.566 3.32-3.405.061-3.771.855-9.547 2.431-10.58.161-.105.359-.184.72-.051.926.571 1.602 1.377 2.248 2.68.757 1.526 1.26 3.253 1.537 5.277.258 1.88.502 7.291.477 8.053a4.523 4.523 0 0 0 .671 2.547l.157.262c.199.336.405.683.664 1.024a9.81 9.81 0 0 1 1.156 1.964h-9.521V32a1 1 0 0 0-1-1H65.94a1 1 0 0 0-1 1v1.876h-9.601c.295-.658.665-1.298 1.113-1.919zm-11.143 6.501c-.032 1.486-.336 2.641-.958 3.633-1.19 1.897-3.826 3.041-6.398 2.79a10.702 10.702 0 0 1-3.227-.819c-2.453-1.055-4.789-1.069-7.144-.045-1.987.867-3.862 1.105-5.735.729-2.664-.535-4.505-2.231-4.926-4.54-.28-1.539-.279-2.976.004-4.33h10.211v1.875a1 1 0 0 0 1 1h5.752a1 1 0 0 0 1-1v-1.875h10.2c.165.814.241 1.671.221 2.582zM29.136 33h3.752v3.751h-3.752V33zm-10.449-1.043c.557-.771.932-1.597 1.295-2.396l.064-.142c.21-.463.19-.934.177-1.278l-.005-.16c-.079-3.622.149-6.566.719-9.266.441-2.089 2.2-5.942 3.47-6.633.37-.141.577-.069.742.038 1.573 1.031 2.369 6.809 2.431 10.564 0 1.854 1.48 3.36 3.32 3.42.02.001.036.011.056.011.01 0 .018-.003.028-.003.01 0 .018.003.028.003.02 0 .036-.01.056-.011 1.84-.06 3.32-1.566 3.32-3.405.061-3.771.855-9.547 2.431-10.58.161-.105.36-.184.72-.051.926.571 1.602 1.378 2.248 2.68.757 1.526 1.26 3.253 1.536 5.277.258 1.885.503 7.293.478 8.053a4.523 4.523 0 0 0 .671 2.547l.158.264c.198.335.404.681.662 1.022a9.863 9.863 0 0 1 1.157 1.964h-9.56V32a1 1 0 0 0-1-1h-5.752a1 1 0 0 0-1 1v1.876h-9.562c.294-.658.663-1.298 1.112-1.919zM11.148 67.042h4.447c.386.947.898 1.842 1.542 2.69.201.266.368.551.537.835l.168.281c.275.452.4.923.383 1.44-.03.859.224 6.415.493 8.393.307 2.242.872 4.171 1.728 5.895.561 1.131 1.418 2.556 3.08 3.548a.86.86 0 0 0 .129.064c.398.167.794.249 1.178.249.517 0 1.013-.149 1.468-.448 3.019-1.979 3.308-10.527 3.335-12.237 0-.78.628-1.414 1.404-1.429a1.435 1.435 0 0 1 1.404 1.444c.027 1.694.316 10.243 3.335 12.222.456.299.951.448 1.468.448a3.06 3.06 0 0 0 1.178-.249c.012-.005.019-.015.031-.021.013-.006.026-.004.039-.011 2.279-1.16 4.153-6.141 4.551-8.022.602-2.854.844-5.943.762-9.721l-.007-.198c-.005-.129-.013-.323 0-.372l.064-.141c.337-.743.655-1.444 1.095-2.054.6-.832 1.072-1.705 1.443-2.607h6.96c.386.947.898 1.842 1.541 2.69.201.266.368.551.537.835l.168.281c.275.452.4.923.383 1.44-.03.859.224 6.415.493 8.393.307 2.239.871 4.168 1.728 5.895.561 1.131 1.418 2.556 3.08 3.548a.86.86 0 0 0 .129.064c.398.167.794.249 1.178.249.517 0 1.013-.149 1.468-.448 3.019-1.979 3.308-10.527 3.335-12.237 0-.779.628-1.413 1.404-1.429.776.016 1.403.65 1.403 1.444.027 1.694.316 10.243 3.335 12.222.455.299.951.448 1.468.448a3.06 3.06 0 0 0 1.178-.249c.012-.005.019-.015.031-.021.013-.006.026-.004.039-.011 2.282-1.161 4.154-6.142 4.551-8.022.602-2.852.844-5.94.763-9.724l-.007-.193a2.423 2.423 0 0 1-.001-.374l.064-.141c.337-.743.656-1.444 1.095-2.054.6-.832 1.072-1.705 1.443-2.607h5.044a1 1 0 1 0 0-2h-4.408c.351-1.632.363-3.359.032-5.171-.572-3.144-3.002-5.439-6.499-6.142-2.255-.455-4.585-.164-6.928.856-1.82.793-3.636.777-5.554-.05a12.859 12.859 0 0 0-3.82-.971c-3.358-.326-6.687 1.162-8.288 3.717-.823 1.312-1.226 2.79-1.266 4.653-.023 1.095.07 2.127.275 3.106h-5.718c.351-1.632.363-3.359.032-5.171-.572-3.144-3.002-5.439-6.499-6.142-2.254-.455-4.585-.164-6.928.856-1.82.793-3.638.777-5.554-.05a12.709 12.709 0 0 0-3.82-.971c-3.347-.326-6.687 1.162-8.29 3.718-.821 1.311-1.224 2.789-1.264 4.651a13.65 13.65 0 0 0 .274 3.107h-3.84a1.003 1.003 0 0 0-.002 2.006zm69.954 1.437c-.557.771-.932 1.597-1.295 2.396l-.064.142c-.211.465-.19.938-.176 1.284l.005.154c.078 3.624-.15 6.568-.72 9.267-.44 2.088-2.198 5.939-3.47 6.632-.371.14-.578.068-.743-.038-1.573-1.031-2.369-6.809-2.431-10.564a3.428 3.428 0 0 0-3.318-3.42c-.02-.001-.037-.011-.057-.011-.01 0-.019.003-.028.003-.01 0-.019-.003-.028-.003-.02 0-.037.01-.057.011-1.839.061-3.319 1.566-3.319 3.405-.061 3.771-.855 9.547-2.431 10.58-.161.104-.361.182-.72.051-.926-.571-1.602-1.378-2.248-2.68-.758-1.529-1.26-3.255-1.536-5.277-.258-1.885-.503-7.293-.478-8.053a4.523 4.523 0 0 0-.671-2.547l-.158-.264a10.497 10.497 0 0 0-.662-1.022c-.36-.475-.67-.969-.934-1.482h9.377v1.876a1 1 0 0 0 1 1h5.751a1 1 0 0 0 1-1v-1.876h9.279c-.251.488-.531.969-.868 1.436zm-14.162-.561v-3.751h3.751v3.751H66.94zm-12.461-5.939c.032-1.486.337-2.641.96-3.633 1.189-1.898 3.819-3.043 6.396-2.79 1.16.115 2.215.383 3.227.817 2.451 1.056 4.788 1.071 7.144.047 1.987-.866 3.864-1.104 5.735-.729 2.664.535 4.505 2.231 4.926 4.54.314 1.724.264 3.317-.129 4.812H72.691v-1.875a1 1 0 0 0-1-1H65.94a1 1 0 0 0-1 1v1.875H54.816a11.381 11.381 0 0 1-.337-3.064zm-11.142 6.5c-.557.771-.932 1.597-1.295 2.396l-.064.142c-.21.463-.19.934-.177 1.278l.005.16c.079 3.622-.149 6.566-.719 9.266-.441 2.089-2.2 5.941-3.47 6.633-.371.14-.578.068-.743-.038-1.573-1.031-2.369-6.809-2.431-10.564 0-1.854-1.48-3.36-3.32-3.42-.02-.001-.036-.011-.056-.011-.01 0-.018.003-.028.003-.01 0-.018-.003-.028-.003-.02 0-.036.01-.056.011-1.84.06-3.32 1.566-3.32 3.405-.061 3.771-.855 9.547-2.431 10.58-.162.104-.36.182-.72.051-.926-.571-1.602-1.378-2.248-2.68-.757-1.526-1.26-3.253-1.536-5.277-.258-1.885-.503-7.293-.478-8.053a4.523 4.523 0 0 0-.671-2.547l-.158-.264a10.497 10.497 0 0 0-.662-1.022 9.933 9.933 0 0 1-.934-1.482h9.337v1.876a1 1 0 0 0 1 1h5.752a1 1 0 0 0 1-1v-1.876h9.318c-.249.488-.53.969-.867 1.436zm-14.201-4.312h3.752v3.751h-3.752v-3.751zm-12.421-2.188c.032-1.486.336-2.641.958-3.633 1.19-1.897 3.823-3.043 6.398-2.79 1.158.115 2.214.383 3.227.817 2.452 1.056 4.787 1.071 7.144.047 1.987-.866 3.864-1.104 5.735-.729 2.664.535 4.505 2.231 4.926 4.54.314 1.724.264 3.317-.129 4.812H34.888v-1.875a1 1 0 0 0-1-1h-5.752a1 1 0 0 0-1 1v1.875H17.051a11.263 11.263 0 0 1-.336-3.064z"></path></g><!----><g data-v-423bf9ae="" id="81fd07da-132a-4039-9b0d-8016324a8cb8" fill="white" transform="matrix(2.6268448723462376,0,0,2.6268448723462376,108.11389796094733,55.58690265919667)"><path d="M0.94 9.74L0.56 9.90C1.19 11.77 2.24 12.71 3.71 12.71C4.62 12.71 5.32 12.45 5.78 11.93C6.25 11.41 6.48 10.77 6.48 10.01C6.48 9.66 6.42 9.35 6.31 9.06C6.19 8.78 6.06 8.55 5.92 8.37C5.77 8.19 5.57 8.02 5.31 7.86C5.04 7.70 4.83 7.58 4.67 7.50C4.51 7.43 4.28 7.34 4.00 7.22C3.97 7.21 3.85 7.16 3.65 7.08C3.46 7.01 3.34 6.96 3.29 6.94C3.24 6.91 3.14 6.87 2.97 6.80C2.80 6.73 2.69 6.67 2.64 6.64C2.59 6.60 2.50 6.54 2.37 6.45C2.24 6.37 2.15 6.30 2.10 6.24C2.05 6.18 1.99 6.10 1.90 6.00C1.82 5.90 1.76 5.80 1.73 5.70C1.70 5.61 1.67 5.50 1.64 5.38C1.61 5.25 1.60 5.12 1.60 4.98C1.60 4.41 1.79 3.95 2.19 3.62C2.59 3.29 3.08 3.12 3.67 3.12C4.80 3.12 5.58 3.77 6.02 5.07L6.43 4.90C6.22 4.23 5.88 3.69 5.42 3.29C4.95 2.89 4.37 2.69 3.68 2.69C2.99 2.69 2.39 2.90 1.88 3.33C1.37 3.76 1.12 4.33 1.12 5.04C1.12 5.39 1.19 5.71 1.34 5.99C1.48 6.27 1.70 6.51 1.98 6.71C2.27 6.91 2.52 7.07 2.75 7.17C2.98 7.28 3.28 7.41 3.64 7.55C3.92 7.65 4.11 7.72 4.21 7.77C4.32 7.82 4.49 7.90 4.73 8.02C4.97 8.13 5.15 8.24 5.26 8.34C5.36 8.45 5.49 8.58 5.63 8.75C5.78 8.92 5.88 9.11 5.94 9.32C5.99 9.54 6.02 9.78 6.02 10.05C6.02 10.72 5.83 11.27 5.45 11.68C5.08 12.09 4.51 12.29 3.75 12.29C2.52 12.29 1.58 11.44 0.94 9.74ZM21.53 9.38C21.53 8.37 21.24 7.56 20.64 6.96C20.05 6.35 19.31 6.05 18.41 6.05C17.79 6.05 17.25 6.23 16.79 6.59C16.33 6.96 16.00 7.44 15.79 8.04L15.79 6.16L15.37 6.16L15.37 15.68L15.79 15.68L15.79 10.72C16.00 11.32 16.33 11.80 16.79 12.17C17.25 12.53 17.79 12.71 18.41 12.71C19.31 12.71 20.05 12.41 20.64 11.80C21.24 11.20 21.53 10.39 21.53 9.38ZM21.10 9.38C21.10 10.28 20.83 10.99 20.29 11.51C19.76 12.03 19.14 12.29 18.45 12.29C17.69 12.29 17.05 12.01 16.55 11.45C16.04 10.89 15.79 10.20 15.79 9.38C15.79 8.56 16.04 7.87 16.55 7.31C17.05 6.75 17.69 6.47 18.45 6.47C19.14 6.47 19.76 6.73 20.29 7.25C20.83 7.77 21.10 8.48 21.10 9.38ZM35.10 9.06L30.25 9.06C30.27 8.38 30.52 7.77 31.00 7.25C31.48 6.73 32.06 6.47 32.75 6.47C33.43 6.47 33.99 6.72 34.43 7.24C34.86 7.75 35.09 8.36 35.10 9.06ZM30.23 9.48L35.53 9.48C35.54 9.43 35.55 9.38 35.55 9.32C35.55 8.33 35.29 7.53 34.77 6.94C34.25 6.34 33.58 6.05 32.75 6.05C31.90 6.05 31.19 6.36 30.63 6.99C30.07 7.61 29.79 8.41 29.79 9.38C29.79 10.33 30.09 11.13 30.67 11.76C31.26 12.39 31.95 12.71 32.75 12.71C33.98 12.71 34.90 12.13 35.50 10.96L35.14 10.74C34.60 11.76 33.81 12.28 32.77 12.28C32.08 12.28 31.49 12.01 31.00 11.47C30.50 10.92 30.24 10.26 30.23 9.48ZM44.17 9.38C44.17 8.55 44.42 7.86 44.92 7.30C45.42 6.75 46.06 6.47 46.86 6.47C47.80 6.47 48.50 6.83 48.96 7.56L48.96 6.87C48.48 6.32 47.78 6.05 46.86 6.05C45.97 6.05 45.23 6.36 44.63 6.99C44.03 7.62 43.74 8.42 43.74 9.38C43.74 10.34 44.03 11.14 44.63 11.77C45.23 12.40 45.97 12.71 46.86 12.71C47.79 12.71 48.49 12.44 48.96 11.89L48.96 11.20C48.72 11.63 48.44 11.92 48.09 12.07C47.74 12.22 47.33 12.29 46.86 12.29C46.06 12.29 45.42 12.01 44.92 11.46C44.42 10.90 44.17 10.21 44.17 9.38ZM57.99 3.15C57.99 3.26 58.02 3.36 58.09 3.43C58.16 3.50 58.26 3.54 58.38 3.54C58.50 3.54 58.60 3.50 58.67 3.43C58.74 3.36 58.77 3.26 58.77 3.15C58.77 3.04 58.74 2.94 58.67 2.87C58.60 2.80 58.50 2.76 58.38 2.76C58.26 2.76 58.16 2.80 58.09 2.87C58.02 2.94 57.99 3.04 57.99 3.15ZM58.17 6.16L58.17 12.60L58.59 12.60L58.59 6.16ZM67.98 7.32C68.36 7.03 68.70 6.81 69.03 6.66C69.35 6.51 69.75 6.44 70.22 6.44C71.36 6.44 71.93 6.95 71.93 7.98L71.93 9.13C71.44 8.82 70.81 8.67 70.06 8.67C69.37 8.67 68.77 8.85 68.27 9.21C67.77 9.56 67.52 10.07 67.52 10.71C67.52 11.39 67.73 11.90 68.15 12.24C68.57 12.57 69.08 12.74 69.66 12.74C70.26 12.74 70.76 12.61 71.16 12.35C71.55 12.09 71.81 11.74 71.93 11.31L71.93 12.60L72.35 12.60L72.35 7.98C72.35 7.34 72.18 6.85 71.85 6.52C71.51 6.19 70.97 6.02 70.22 6.02C69.86 6.02 69.51 6.07 69.18 6.18C68.85 6.29 68.60 6.40 68.42 6.50C68.25 6.61 68.03 6.76 67.76 6.96ZM67.96 10.71C67.96 10.20 68.15 9.79 68.55 9.50C68.95 9.21 69.45 9.06 70.06 9.06C70.73 9.06 71.35 9.23 71.93 9.56L71.93 10.36C71.93 10.94 71.71 11.41 71.27 11.79C70.84 12.16 70.32 12.35 69.73 12.35C69.17 12.35 68.74 12.21 68.42 11.93C68.11 11.65 67.96 11.24 67.96 10.71ZM81.52 1.68L81.52 12.60L81.94 12.60L81.94 1.68ZM91.32 3.15C91.32 3.26 91.36 3.36 91.43 3.43C91.50 3.50 91.59 3.54 91.71 3.54C91.84 3.54 91.93 3.50 92.00 3.43C92.07 3.36 92.11 3.26 92.11 3.15C92.11 3.04 92.07 2.94 92.00 2.87C91.93 2.80 91.84 2.76 91.71 2.76C91.59 2.76 91.50 2.80 91.43 2.87C91.36 2.94 91.32 3.04 91.32 3.15ZM91.50 6.16L91.50 12.60L91.92 12.60L91.92 6.16ZM101.28 10.50L100.86 10.58C100.97 11.16 101.22 11.66 101.62 12.08C102.02 12.50 102.52 12.71 103.14 12.71C103.71 12.71 104.17 12.56 104.54 12.24C104.90 11.93 105.08 11.50 105.08 10.96C105.08 9.99 104.50 9.34 103.32 9.00C102.81 8.85 102.41 8.68 102.13 8.47C101.85 8.26 101.71 7.98 101.71 7.63C101.71 7.28 101.84 7.00 102.10 6.79C102.35 6.58 102.70 6.48 103.14 6.48C103.85 6.48 104.37 6.86 104.69 7.63L105.07 7.45C104.74 6.51 104.09 6.05 103.12 6.05C102.59 6.05 102.14 6.19 101.78 6.47C101.42 6.75 101.23 7.14 101.23 7.64C101.23 7.90 101.28 8.12 101.37 8.31C101.47 8.50 101.61 8.66 101.82 8.80C102.02 8.93 102.21 9.04 102.39 9.12C102.57 9.20 102.82 9.29 103.12 9.39C103.64 9.57 104.02 9.78 104.26 10.01C104.50 10.24 104.62 10.57 104.62 11.00C104.62 11.38 104.49 11.68 104.23 11.92C103.97 12.16 103.60 12.28 103.12 12.28C102.60 12.28 102.18 12.09 101.86 11.71C101.54 11.33 101.34 10.93 101.28 10.50ZM113.90 3.92L113.90 6.16L112.85 6.16L112.85 6.58L113.90 6.58L113.90 12.60L114.32 12.60L114.32 6.58L115.37 6.58L115.37 6.16L114.32 6.16L114.32 3.92ZM134.97 3.15C134.97 3.26 135.01 3.36 135.08 3.43C135.15 3.50 135.24 3.54 135.37 3.54C135.49 3.54 135.58 3.50 135.65 3.43C135.72 3.36 135.76 3.26 135.76 3.15C135.76 3.04 135.72 2.94 135.65 2.87C135.58 2.80 135.49 2.76 135.37 2.76C135.24 2.76 135.15 2.80 135.08 2.87C135.01 2.94 134.97 3.04 134.97 3.15ZM135.16 6.16L135.16 12.60L135.58 12.60L135.58 6.16ZM145.56 8.68C145.56 8.12 145.76 7.61 146.17 7.15C146.57 6.70 147.08 6.47 147.69 6.47C148.74 6.47 149.27 7.16 149.27 8.54L149.27 12.60L149.69 12.60L149.69 8.40C149.69 7.68 149.53 7.11 149.21 6.68C148.89 6.26 148.43 6.05 147.83 6.05C147.24 6.05 146.75 6.19 146.37 6.46C145.99 6.74 145.72 7.12 145.56 7.62L145.56 6.16L145.14 6.16L145.14 12.60L145.56 12.60ZM170.20 7.70C170.20 6.38 170.60 5.29 171.42 4.41C172.23 3.53 173.25 3.09 174.50 3.09C175.74 3.09 176.76 3.53 177.58 4.41C178.39 5.29 178.79 6.38 178.79 7.70C178.79 9.02 178.39 10.11 177.58 10.99C176.76 11.87 175.74 12.31 174.50 12.31C173.25 12.31 172.23 11.87 171.42 10.99C170.60 10.11 170.20 9.02 170.20 7.70ZM169.78 7.70C169.78 9.16 170.22 10.36 171.11 11.30C172.01 12.24 173.13 12.71 174.50 12.71C175.86 12.71 176.99 12.24 177.88 11.30C178.77 10.36 179.21 9.16 179.21 7.70C179.21 6.24 178.77 5.04 177.88 4.10C176.99 3.16 175.86 2.69 174.50 2.69C173.13 2.69 172.01 3.16 171.11 4.10C170.22 5.04 169.78 6.24 169.78 7.70ZM190.83 6.96L191.09 6.57C190.72 6.22 190.37 6.05 190.02 6.05C189.24 6.05 188.74 6.51 188.52 7.43L188.52 6.16L188.10 6.16L188.10 12.60L188.52 12.60L188.52 8.68C188.52 8.17 188.65 7.68 188.90 7.21C189.15 6.74 189.48 6.51 189.87 6.51C190.29 6.51 190.61 6.66 190.83 6.96ZM199.84 3.92L199.84 6.16L198.79 6.16L198.79 6.58L199.84 6.58L199.84 12.60L200.26 12.60L200.26 6.58L201.31 6.58L201.31 6.16L200.26 6.16L200.26 3.92ZM210.13 8.68C210.13 8.12 210.33 7.61 210.73 7.15C211.14 6.70 211.65 6.47 212.25 6.47C213.31 6.47 213.84 7.16 213.84 8.54L213.84 12.60L214.26 12.60L214.26 8.40C214.26 7.68 214.10 7.11 213.78 6.68C213.46 6.26 213.00 6.05 212.39 6.05C211.81 6.05 211.32 6.19 210.94 6.46C210.56 6.74 210.28 7.12 210.13 7.62L210.13 1.68L209.71 1.68L209.71 12.60L210.13 12.60ZM223.08 9.38C223.08 10.36 223.36 11.16 223.94 11.78C224.51 12.40 225.24 12.71 226.11 12.71C226.99 12.71 227.72 12.40 228.29 11.78C228.87 11.16 229.15 10.36 229.15 9.38C229.15 8.40 228.87 7.60 228.29 6.98C227.72 6.36 226.99 6.05 226.11 6.05C225.24 6.05 224.51 6.36 223.94 6.98C223.36 7.60 223.08 8.40 223.08 9.38ZM223.50 9.38C223.50 8.52 223.74 7.82 224.24 7.28C224.73 6.74 225.36 6.47 226.11 6.47C226.87 6.47 227.50 6.74 227.99 7.28C228.48 7.82 228.73 8.52 228.73 9.38C228.73 10.24 228.48 10.94 227.99 11.48C227.50 12.02 226.87 12.29 226.11 12.29C225.36 12.29 224.73 12.02 224.24 11.48C223.74 10.94 223.50 10.24 223.50 9.38ZM237.41 9.38C237.41 10.39 237.71 11.20 238.30 11.80C238.89 12.41 239.64 12.71 240.53 12.71C241.15 12.71 241.69 12.53 242.15 12.17C242.61 11.80 242.95 11.32 243.15 10.72L243.15 12.60L243.57 12.60L243.57 1.68L243.15 1.68L243.15 8.04C242.95 7.44 242.61 6.96 242.15 6.59C241.69 6.23 241.15 6.05 240.53 6.05C239.64 6.05 238.89 6.35 238.30 6.96C237.71 7.56 237.41 8.37 237.41 9.38ZM237.85 9.38C237.85 8.48 238.11 7.77 238.65 7.25C239.19 6.73 239.80 6.47 240.49 6.47C241.26 6.47 241.89 6.75 242.40 7.31C242.90 7.87 243.15 8.56 243.15 9.38C243.15 10.20 242.90 10.89 242.40 11.45C241.89 12.01 241.26 12.29 240.49 12.29C239.80 12.29 239.19 12.03 238.65 11.51C238.11 10.99 237.85 10.28 237.85 9.38ZM252.32 9.38C252.32 10.36 252.61 11.16 253.18 11.78C253.76 12.40 254.48 12.71 255.36 12.71C256.24 12.71 256.96 12.40 257.54 11.78C258.11 11.16 258.40 10.36 258.40 9.38C258.40 8.40 258.11 7.60 257.54 6.98C256.96 6.36 256.24 6.05 255.36 6.05C254.48 6.05 253.76 6.36 253.18 6.98C252.61 7.60 252.32 8.40 252.32 9.38ZM252.74 9.38C252.74 8.52 252.99 7.82 253.48 7.28C253.98 6.74 254.60 6.47 255.36 6.47C256.12 6.47 256.74 6.74 257.24 7.28C257.73 7.82 257.98 8.52 257.98 9.38C257.98 10.24 257.73 10.94 257.24 11.48C256.74 12.02 256.12 12.29 255.36 12.29C254.60 12.29 253.98 12.02 253.48 11.48C252.99 10.94 252.74 10.24 252.74 9.38ZM267.64 8.68C267.64 8.12 267.84 7.61 268.25 7.15C268.65 6.70 269.16 6.47 269.77 6.47C270.82 6.47 271.35 7.16 271.35 8.54L271.35 12.60L271.77 12.60L271.77 8.40C271.77 7.68 271.61 7.11 271.29 6.68C270.97 6.26 270.51 6.05 269.91 6.05C269.32 6.05 268.83 6.19 268.45 6.46C268.07 6.74 267.80 7.12 267.64 7.62L267.64 6.16L267.22 6.16L267.22 12.60L267.64 12.60ZM280.94 3.92L280.94 6.16L279.89 6.16L279.89 6.58L280.94 6.58L280.94 12.60L281.36 12.60L281.36 6.58L282.41 6.58L282.41 6.16L281.36 6.16L281.36 3.92ZM290.81 3.15C290.81 3.26 290.84 3.36 290.91 3.43C290.98 3.50 291.08 3.54 291.20 3.54C291.32 3.54 291.42 3.50 291.49 3.43C291.56 3.36 291.59 3.26 291.59 3.15C291.59 3.04 291.56 2.94 291.49 2.87C291.42 2.80 291.32 2.76 291.20 2.76C291.08 2.76 290.98 2.80 290.91 2.87C290.84 2.94 290.81 3.04 290.81 3.15ZM290.99 6.16L290.99 12.60L291.41 12.60L291.41 6.16ZM300.78 9.38C300.78 8.55 301.03 7.86 301.53 7.30C302.02 6.75 302.67 6.47 303.46 6.47C304.41 6.47 305.11 6.83 305.56 7.56L305.56 6.87C305.09 6.32 304.39 6.05 303.46 6.05C302.58 6.05 301.84 6.36 301.24 6.99C300.64 7.62 300.34 8.42 300.34 9.38C300.34 10.34 300.64 11.14 301.24 11.77C301.84 12.40 302.58 12.71 303.46 12.71C304.40 12.71 305.10 12.44 305.56 11.89L305.56 11.20C305.33 11.63 305.04 11.92 304.70 12.07C304.35 12.22 303.94 12.29 303.46 12.29C302.67 12.29 302.02 12.01 301.53 11.46C301.03 10.90 300.78 10.21 300.78 9.38ZM314.38 10.50L313.96 10.58C314.08 11.16 314.33 11.66 314.73 12.08C315.12 12.50 315.63 12.71 316.25 12.71C316.82 12.71 317.28 12.56 317.65 12.24C318.01 11.93 318.19 11.50 318.19 10.96C318.19 9.99 317.60 9.34 316.43 9.00C315.91 8.85 315.52 8.68 315.24 8.47C314.96 8.26 314.82 7.98 314.82 7.63C314.82 7.28 314.95 7.00 315.20 6.79C315.46 6.58 315.81 6.48 316.25 6.48C316.96 6.48 317.47 6.86 317.80 7.63L318.18 7.45C317.85 6.51 317.20 6.05 316.23 6.05C315.70 6.05 315.25 6.19 314.89 6.47C314.52 6.75 314.34 7.14 314.34 7.64C314.34 7.90 314.39 8.12 314.48 8.31C314.58 8.50 314.72 8.66 314.92 8.80C315.12 8.93 315.32 9.04 315.50 9.12C315.68 9.20 315.92 9.29 316.23 9.39C316.75 9.57 317.12 9.78 317.37 10.01C317.61 10.24 317.73 10.57 317.73 11.00C317.73 11.38 317.60 11.68 317.34 11.92C317.08 12.16 316.71 12.28 316.23 12.28C315.71 12.28 315.29 12.09 314.97 11.71C314.64 11.33 314.45 10.93 314.38 10.50Z"></path></g></svg>