<svg data-v-423bf9ae="" xmlns="http://www.w3.org/2000/svg" viewBox="0 0 1042.9559370371578 60" class="font"><!----><!----><!----><g data-v-423bf9ae="" id="4a0b5ed2-b6e5-42cc-927b-d418894a777a" fill="black" transform="matrix(5.612721889848748,0,0,5.612721889848748,-8.25071237013151,-16.557529604270663)"><path d="M1.47 13.55L1.47 3.75L5.60 3.75L5.60 3.75Q7.15 3.75 8.36 4.37L8.36 4.37L8.36 4.37Q9.56 4.98 10.23 6.10L10.23 6.10L10.23 6.10Q10.89 7.21 10.89 8.65L10.89 8.65L10.89 8.65Q10.89 10.09 10.23 11.21L10.23 11.21L10.23 11.21Q9.56 12.32 8.36 12.94L8.36 12.94L8.36 12.94Q7.15 13.55 5.60 13.55L5.60 13.55L1.47 13.55ZM2.87 12.33L5.52 12.33L5.52 12.33Q6.71 12.33 7.61 11.87L7.61 11.87L7.61 11.87Q8.51 11.41 9.00 10.58L9.00 10.58L9.00 10.58Q9.49 9.74 9.49 8.65L9.49 8.65L9.49 8.65Q9.49 7.56 9.00 6.73L9.00 6.73L9.00 6.73Q8.51 5.89 7.61 5.43L7.61 5.43L7.61 5.43Q6.71 4.97 5.52 4.97L5.52 4.97L2.87 4.97L2.87 12.33ZM14.13 7.38L14.13 7.38Q14.48 6.73 15.16 6.40L15.16 6.40L15.16 6.40Q15.85 6.06 16.83 6.06L16.83 6.06L16.83 7.36L16.83 7.36Q16.72 7.35 16.52 7.35L16.52 7.35L16.52 7.35Q15.43 7.35 14.80 8.00L14.80 8.00L14.80 8.00Q14.18 8.65 14.18 9.86L14.18 9.86L14.18 13.55L12.84 13.55L12.84 6.13L14.13 6.13L14.13 7.38ZM18.90 13.64L18.90 13.64Q18.51 13.64 18.23 13.36L18.23 13.36L18.23 13.36Q17.95 13.09 17.95 12.67L17.95 12.67L17.95 12.67Q17.95 12.26 18.23 11.99L18.23 11.99L18.23 11.99Q18.51 11.72 18.90 11.72L18.90 11.72L18.90 11.72Q19.29 11.72 19.56 11.98L19.56 11.98L19.56 11.98Q19.82 12.25 19.82 12.67L19.82 12.67L19.82 12.67Q19.82 13.09 19.55 13.36L19.55 13.36L19.55 13.36Q19.28 13.64 18.90 13.64L18.90 13.64ZM36.15 13.55L34.80 13.55L34.79 6.41L31.25 12.36L30.60 12.36L27.06 6.45L27.06 13.55L25.72 13.55L25.72 3.75L26.87 3.75L30.95 10.64L34.99 3.75L36.13 3.75L36.15 13.55ZM45.60 9.88L45.60 9.88Q45.60 10.04 45.57 10.29L45.57 10.29L39.55 10.29L39.55 10.29Q39.68 11.27 40.41 11.87L40.41 11.87L40.41 11.87Q41.15 12.46 42.24 12.46L42.24 12.46L42.24 12.46Q43.57 12.46 44.38 11.56L44.38 11.56L45.12 12.43L45.12 12.43Q44.62 13.02 43.87 13.33L43.87 13.33L43.87 13.33Q43.12 13.64 42.20 13.64L42.20 13.64L42.20 13.64Q41.02 13.64 40.11 13.15L40.11 13.15L40.11 13.15Q39.20 12.67 38.70 11.80L38.70 11.80L38.70 11.80Q38.21 10.93 38.21 9.84L38.21 9.84L38.21 9.84Q38.21 8.76 38.69 7.90L38.69 7.90L38.69 7.90Q39.17 7.03 40.02 6.54L40.02 6.54L40.02 6.54Q40.87 6.06 41.93 6.06L41.93 6.06L41.93 6.06Q42.99 6.06 43.83 6.54L43.83 6.54L43.83 6.54Q44.66 7.03 45.13 7.90L45.13 7.90L45.13 7.90Q45.60 8.76 45.60 9.88L45.60 9.88ZM41.93 7.20L41.93 7.20Q40.96 7.20 40.31 7.78L40.31 7.78L40.31 7.78Q39.66 8.37 39.55 9.32L39.55 9.32L44.31 9.32L44.31 9.32Q44.20 8.39 43.55 7.79L43.55 7.79L43.55 7.79Q42.90 7.20 41.93 7.20L41.93 7.20ZM53.12 3.16L54.46 3.16L54.46 13.55L53.17 13.55L53.17 12.38L53.17 12.38Q52.72 12.99 52.04 13.31L52.04 13.31L52.04 13.31Q51.35 13.64 50.53 13.64L50.53 13.64L50.53 13.64Q49.45 13.64 48.59 13.16L48.59 13.16L48.59 13.16Q47.74 12.68 47.26 11.82L47.26 11.82L47.26 11.82Q46.77 10.96 46.77 9.84L46.77 9.84L46.77 9.84Q46.77 8.72 47.26 7.87L47.26 7.87L47.26 7.87Q47.74 7.01 48.59 6.54L48.59 6.54L48.59 6.54Q49.45 6.06 50.53 6.06L50.53 6.06L50.53 6.06Q51.32 6.06 52.00 6.36L52.00 6.36L52.00 6.36Q52.67 6.66 53.12 7.25L53.12 7.25L53.12 3.16ZM50.64 12.46L50.64 12.46Q51.34 12.46 51.91 12.13L51.91 12.13L51.91 12.13Q52.49 11.80 52.81 11.21L52.81 11.21L52.81 11.21Q53.13 10.61 53.13 9.84L53.13 9.84L53.13 9.84Q53.13 9.07 52.81 8.48L52.81 8.48L52.81 8.48Q52.49 7.88 51.91 7.56L51.91 7.56L51.91 7.56Q51.34 7.24 50.64 7.24L50.64 7.24L50.64 7.24Q49.92 7.24 49.36 7.56L49.36 7.56L49.36 7.56Q48.79 7.88 48.46 8.48L48.46 8.48L48.46 8.48Q48.13 9.07 48.13 9.84L48.13 9.84L48.13 9.84Q48.13 10.61 48.46 11.21L48.46 11.21L48.46 11.21Q48.79 11.80 49.36 12.13L49.36 12.13L49.36 12.13Q49.92 12.46 50.64 12.46L50.64 12.46ZM57.33 13.64L57.33 13.64Q56.94 13.64 56.66 13.36L56.66 13.36L56.66 13.36Q56.38 13.09 56.38 12.67L56.38 12.67L56.38 12.67Q56.38 12.26 56.66 11.99L56.66 11.99L56.66 11.99Q56.94 11.72 57.33 11.72L57.33 11.72L57.33 11.72Q57.72 11.72 57.99 11.98L57.99 11.98L57.99 11.98Q58.25 12.25 58.25 12.67L58.25 12.67L58.25 12.67Q58.25 13.09 57.98 13.36L57.98 13.36L57.98 13.36Q57.71 13.64 57.33 13.64L57.33 13.64ZM64.15 13.55L64.15 3.75L68.28 3.75L68.28 3.75Q69.83 3.75 71.04 4.37L71.04 4.37L71.04 4.37Q72.24 4.98 72.91 6.10L72.91 6.10L72.91 6.10Q73.57 7.21 73.57 8.65L73.57 8.65L73.57 8.65Q73.57 10.09 72.91 11.21L72.91 11.21L72.91 11.21Q72.24 12.32 71.04 12.94L71.04 12.94L71.04 12.94Q69.83 13.55 68.28 13.55L68.28 13.55L64.15 13.55ZM65.55 12.33L68.19 12.33L68.19 12.33Q69.38 12.33 70.29 11.87L70.29 11.87L70.29 11.87Q71.19 11.41 71.68 10.58L71.68 10.58L71.68 10.58Q72.17 9.74 72.17 8.65L72.17 8.65L72.17 8.65Q72.17 7.56 71.68 6.73L71.68 6.73L71.68 6.73Q71.19 5.89 70.29 5.43L70.29 5.43L70.29 5.43Q69.38 4.97 68.19 4.97L68.19 4.97L65.55 4.97L65.55 12.33ZM82.22 9.88L82.22 9.88Q82.22 10.04 82.19 10.29L82.19 10.29L76.17 10.29L76.17 10.29Q76.30 11.27 77.04 11.87L77.04 11.87L77.04 11.87Q77.77 12.46 78.86 12.46L78.86 12.46L78.86 12.46Q80.19 12.46 81.00 11.56L81.00 11.56L81.75 12.43L81.75 12.43Q81.24 13.02 80.49 13.33L80.49 13.33L80.49 13.33Q79.74 13.64 78.82 13.64L78.82 13.64L78.82 13.64Q77.64 13.64 76.73 13.15L76.73 13.15L76.73 13.15Q75.82 12.67 75.33 11.80L75.33 11.80L75.33 11.80Q74.83 10.93 74.83 9.84L74.83 9.84L74.83 9.84Q74.83 8.76 75.31 7.90L75.31 7.90L75.31 7.90Q75.80 7.03 76.64 6.54L76.64 6.54L76.64 6.54Q77.49 6.06 78.55 6.06L78.55 6.06L78.55 6.06Q79.62 6.06 80.45 6.54L80.45 6.54L80.45 6.54Q81.28 7.03 81.75 7.90L81.75 7.90L81.75 7.90Q82.22 8.76 82.22 9.88L82.22 9.88ZM78.55 7.20L78.55 7.20Q77.59 7.20 76.94 7.78L76.94 7.78L76.94 7.78Q76.29 8.37 76.17 9.32L76.17 9.32L80.93 9.32L80.93 9.32Q80.82 8.39 80.17 7.79L80.17 7.79L80.17 7.79Q79.52 7.20 78.55 7.20L78.55 7.20ZM88.05 6.06L88.05 6.06Q89.46 6.06 90.29 6.88L90.29 6.88L90.29 6.88Q91.13 7.70 91.13 9.28L91.13 9.28L91.13 13.55L89.78 13.55L89.78 9.44L89.78 9.44Q89.78 8.36 89.26 7.81L89.26 7.81L89.26 7.81Q88.75 7.27 87.78 7.27L87.78 7.27L87.78 7.27Q86.69 7.27 86.06 7.90L86.06 7.90L86.06 7.90Q85.43 8.54 85.43 9.73L85.43 9.73L85.43 13.55L84.08 13.55L84.08 6.13L85.37 6.13L85.37 7.25L85.37 7.25Q85.78 6.68 86.47 6.37L86.47 6.37L86.47 6.37Q87.16 6.06 88.05 6.06L88.05 6.06ZM97.37 12.15L97.79 13.12L97.79 13.12Q97.50 13.37 97.06 13.50L97.06 13.50L97.06 13.50Q96.63 13.64 96.17 13.64L96.17 13.64L96.17 13.64Q95.05 13.64 94.43 13.03L94.43 13.03L94.43 13.03Q93.81 12.43 93.81 11.31L93.81 11.31L93.81 7.24L92.55 7.24L92.55 6.13L93.81 6.13L93.81 4.51L95.16 4.51L95.16 6.13L97.29 6.13L97.29 7.24L95.16 7.24L95.16 11.26L95.16 11.26Q95.16 11.86 95.46 12.18L95.46 12.18L95.46 12.18Q95.76 12.50 96.32 12.50L96.32 12.50L96.32 12.50Q96.94 12.50 97.37 12.15L97.37 12.15ZM99.74 13.64L99.74 13.64Q99.34 13.64 99.06 13.36L99.06 13.36L99.06 13.36Q98.78 13.09 98.78 12.67L98.78 12.67L98.78 12.67Q98.78 12.26 99.06 11.99L99.06 11.99L99.06 11.99Q99.34 11.72 99.74 11.72L99.74 11.72L99.74 11.72Q100.13 11.72 100.39 11.98L100.39 11.98L100.39 11.98Q100.66 12.25 100.66 12.67L100.66 12.67L100.66 12.67Q100.66 13.09 100.39 13.36L100.39 13.36L100.39 13.36Q100.11 13.64 99.74 13.64L99.74 13.64ZM107.95 12.33L113.67 12.33L113.67 13.55L106.55 13.55L106.55 3.75L113.47 3.75L113.47 4.97L107.95 4.97L107.95 7.98L112.87 7.98L112.87 9.17L107.95 9.17L107.95 12.33ZM125.02 6.06L125.02 6.06Q126.42 6.06 127.24 6.87L127.24 6.87L127.24 6.87Q128.06 7.69 128.06 9.28L128.06 9.28L128.06 13.55L126.71 13.55L126.71 9.44L126.71 9.44Q126.71 8.36 126.22 7.81L126.22 7.81L126.22 7.81Q125.72 7.27 124.80 7.27L124.80 7.27L124.80 7.27Q123.77 7.27 123.17 7.90L123.17 7.90L123.17 7.90Q122.57 8.54 122.57 9.73L122.57 9.73L122.57 13.55L121.23 13.55L121.23 9.44L121.23 9.44Q121.23 8.36 120.73 7.81L120.73 7.81L120.73 7.81Q120.23 7.27 119.31 7.27L119.31 7.27L119.31 7.27Q118.29 7.27 117.68 7.90L117.68 7.90L117.68 7.90Q117.08 8.54 117.08 9.73L117.08 9.73L117.08 13.55L115.74 13.55L115.74 6.13L117.03 6.13L117.03 7.24L117.03 7.24Q117.43 6.66 118.09 6.36L118.09 6.36L118.09 6.36Q118.75 6.06 119.59 6.06L119.59 6.06L119.59 6.06Q120.46 6.06 121.13 6.41L121.13 6.41L121.13 6.41Q121.80 6.76 122.16 7.43L122.16 7.43L122.16 7.43Q122.58 6.79 123.33 6.43L123.33 6.43L123.33 6.43Q124.08 6.06 125.02 6.06L125.02 6.06ZM131.82 7.38L131.82 7.38Q132.17 6.73 132.86 6.40L132.86 6.40L132.86 6.40Q133.55 6.06 134.53 6.06L134.53 6.06L134.53 7.36L134.53 7.36Q134.41 7.35 134.22 7.35L134.22 7.35L134.22 7.35Q133.13 7.35 132.50 8.00L132.50 8.00L132.50 8.00Q131.88 8.65 131.88 9.86L131.88 9.86L131.88 13.55L130.54 13.55L130.54 6.13L131.82 6.13L131.82 7.38ZM142.98 9.88L142.98 9.88Q142.98 10.04 142.95 10.29L142.95 10.29L136.93 10.29L136.93 10.29Q137.06 11.27 137.80 11.87L137.80 11.87L137.80 11.87Q138.53 12.46 139.62 12.46L139.62 12.46L139.62 12.46Q140.95 12.46 141.76 11.56L141.76 11.56L142.51 12.43L142.51 12.43Q142.00 13.02 141.25 13.33L141.25 13.33L141.25 13.33Q140.50 13.64 139.58 13.64L139.58 13.64L139.58 13.64Q138.40 13.64 137.49 13.15L137.49 13.15L137.49 13.15Q136.58 12.67 136.09 11.80L136.09 11.80L136.09 11.80Q135.59 10.93 135.59 9.84L135.59 9.84L135.59 9.84Q135.59 8.76 136.07 7.90L136.07 7.90L136.07 7.90Q136.56 7.03 137.40 6.54L137.40 6.54L137.40 6.54Q138.25 6.06 139.31 6.06L139.31 6.06L139.31 6.06Q140.38 6.06 141.21 6.54L141.21 6.54L141.21 6.54Q142.04 7.03 142.51 7.90L142.51 7.90L142.51 7.90Q142.98 8.76 142.98 9.88L142.98 9.88ZM139.31 7.20L139.31 7.20Q138.35 7.20 137.70 7.78L137.70 7.78L137.70 7.78Q137.05 8.37 136.93 9.32L136.93 9.32L141.69 9.32L141.69 9.32Q141.58 8.39 140.93 7.79L140.93 7.79L140.93 7.79Q140.28 7.20 139.31 7.20L139.31 7.20ZM159.24 13.55L157.89 13.55L157.88 6.41L154.34 12.36L153.69 12.36L150.15 6.45L150.15 13.55L148.81 13.55L148.81 3.75L149.95 3.75L154.04 10.64L158.07 3.75L159.22 3.75L159.24 13.55ZM168.69 9.88L168.69 9.88Q168.69 10.04 168.66 10.29L168.66 10.29L162.64 10.29L162.64 10.29Q162.76 11.27 163.50 11.87L163.50 11.87L163.50 11.87Q164.23 12.46 165.33 12.46L165.33 12.46L165.33 12.46Q166.66 12.46 167.47 11.56L167.47 11.56L168.21 12.43L168.21 12.43Q167.71 13.02 166.96 13.33L166.96 13.33L166.96 13.33Q166.21 13.64 165.28 13.64L165.28 13.64L165.28 13.64Q164.11 13.64 163.20 13.15L163.20 13.15L163.20 13.15Q162.29 12.67 161.79 11.80L161.79 11.80L161.79 11.80Q161.29 10.93 161.29 9.84L161.29 9.84L161.29 9.84Q161.29 8.76 161.78 7.90L161.78 7.90L161.78 7.90Q162.26 7.03 163.11 6.54L163.11 6.54L163.11 6.54Q163.95 6.06 165.02 6.06L165.02 6.06L165.02 6.06Q166.08 6.06 166.92 6.54L166.92 6.54L166.92 6.54Q167.75 7.03 168.22 7.90L168.22 7.90L168.22 7.90Q168.69 8.76 168.69 9.88L168.69 9.88ZM165.02 7.20L165.02 7.20Q164.05 7.20 163.40 7.78L163.40 7.78L163.40 7.78Q162.75 8.37 162.64 9.32L162.64 9.32L167.40 9.32L167.40 9.32Q167.29 8.39 166.64 7.79L166.64 7.79L166.64 7.79Q165.98 7.20 165.02 7.20L165.02 7.20ZM174.30 12.15L174.72 13.12L174.72 13.12Q174.43 13.37 173.99 13.50L173.99 13.50L173.99 13.50Q173.56 13.64 173.10 13.64L173.10 13.64L173.10 13.64Q171.98 13.64 171.36 13.03L171.36 13.03L171.36 13.03Q170.74 12.43 170.74 11.31L170.74 11.31L170.74 7.24L169.48 7.24L169.48 6.13L170.74 6.13L170.74 4.51L172.09 4.51L172.09 6.13L174.22 6.13L174.22 7.24L172.09 7.24L172.09 11.26L172.09 11.26Q172.09 11.86 172.39 12.18L172.39 12.18L172.39 12.18Q172.69 12.50 173.25 12.50L173.25 12.50L173.25 12.50Q173.87 12.50 174.30 12.15L174.30 12.15ZM176.34 13.55L176.34 6.13L177.69 6.13L177.69 13.55L176.34 13.55ZM177.02 4.70L177.02 4.70Q176.62 4.70 176.37 4.45L176.37 4.45L176.37 4.45Q176.11 4.20 176.11 3.84L176.11 3.84L176.11 3.84Q176.11 3.47 176.37 3.21L176.37 3.21L176.37 3.21Q176.62 2.95 177.02 2.95L177.02 2.95L177.02 2.95Q177.41 2.95 177.67 3.20L177.67 3.20L177.67 3.20Q177.93 3.44 177.93 3.81L177.93 3.81L177.93 3.81Q177.93 4.19 177.67 4.45L177.67 4.45L177.67 4.45Q177.41 4.70 177.02 4.70L177.02 4.70ZM184.21 6.06L184.21 6.06Q185.63 6.06 186.46 6.88L186.46 6.88L186.46 6.88Q187.29 7.70 187.29 9.28L187.29 9.28L187.29 13.55L185.95 13.55L185.95 9.44L185.95 9.44Q185.95 8.36 185.43 7.81L185.43 7.81L185.43 7.81Q184.91 7.27 183.95 7.27L183.95 7.27L183.95 7.27Q182.85 7.27 182.22 7.90L182.22 7.90L182.22 7.90Q181.59 8.54 181.59 9.73L181.59 9.73L181.59 13.55L180.25 13.55L180.25 6.13L181.54 6.13L181.54 7.25L181.54 7.25Q181.94 6.68 182.64 6.37L182.64 6.37L182.64 6.37Q183.33 6.06 184.21 6.06L184.21 6.06Z"></path></g><!----><!----></svg>